<mxfile host="Electron" agent="Mozilla/5.0 (Windows NT 10.0; Win64; x64) AppleWebKit/537.36 (KHTML, like Gecko) draw.io/24.7.8 Chrome/128.0.6613.36 Electron/32.0.1 Safari/537.36" version="24.7.8">
  <diagram id="C5RBs43oDa-KdzZeNtuy" name="Page-1">
    <mxGraphModel dx="2867" dy="1152" grid="1" gridSize="10" guides="1" tooltips="1" connect="1" arrows="1" fold="1" page="1" pageScale="1" pageWidth="827" pageHeight="1169" math="0" shadow="0">
      <root>
        <mxCell id="WIyWlLk6GJQsqaUBKTNV-0" />
        <mxCell id="WIyWlLk6GJQsqaUBKTNV-1" parent="WIyWlLk6GJQsqaUBKTNV-0" />
        <mxCell id="B5mmSGYg9XK-imMD-Xx6-17" style="edgeStyle=orthogonalEdgeStyle;rounded=0;orthogonalLoop=1;jettySize=auto;html=1;" parent="WIyWlLk6GJQsqaUBKTNV-1" source="B5mmSGYg9XK-imMD-Xx6-0" target="B5mmSGYg9XK-imMD-Xx6-11" edge="1">
          <mxGeometry relative="1" as="geometry" />
        </mxCell>
        <mxCell id="B5mmSGYg9XK-imMD-Xx6-0" value="Start" style="ellipse;whiteSpace=wrap;html=1;" parent="WIyWlLk6GJQsqaUBKTNV-1" vertex="1">
          <mxGeometry x="-60" y="10" width="120" height="40" as="geometry" />
        </mxCell>
        <mxCell id="9oWaoVra9yV_TYSD30ba-0" style="edgeStyle=orthogonalEdgeStyle;rounded=0;orthogonalLoop=1;jettySize=auto;html=1;" parent="WIyWlLk6GJQsqaUBKTNV-1" source="B5mmSGYg9XK-imMD-Xx6-11" edge="1">
          <mxGeometry relative="1" as="geometry">
            <mxPoint y="390" as="targetPoint" />
          </mxGeometry>
        </mxCell>
        <mxCell id="B5mmSGYg9XK-imMD-Xx6-11" value="&quot;=========================================================&quot;&lt;div&gt;&quot;Menu Program Menghitung Luas /&amp;nbsp; Keliling Bangun Datar&quot;&lt;/div&gt;&lt;div&gt;&quot;=========================================================&quot;&lt;/div&gt;&lt;div style=&quot;text-align: left;&quot;&gt;&quot;Menu Bangun Datar : &quot;&lt;/div&gt;&lt;div style=&quot;text-align: left;&quot;&gt;&quot;1. Persegi&quot;&lt;/div&gt;&lt;div style=&quot;text-align: left;&quot;&gt;&quot;1.1 Luas&quot;&lt;/div&gt;&lt;div style=&quot;text-align: left;&quot;&gt;&quot;1.2 Keliling&quot;&lt;/div&gt;&lt;div style=&quot;text-align: left;&quot;&gt;&quot;2. Persegi Panjang&quot;&lt;/div&gt;&lt;div style=&quot;text-align: left;&quot;&gt;&quot;2.1 Luas&quot;&lt;/div&gt;&lt;div style=&quot;text-align: left;&quot;&gt;&quot;2.2 Keliling&quot;&lt;/div&gt;&lt;div style=&quot;text-align: left;&quot;&gt;&lt;div&gt;&quot;3. Segitiga&quot;&lt;/div&gt;&lt;div&gt;&quot;3.1 Luas&quot;&lt;/div&gt;&lt;div&gt;&quot;3.2 Keliling&quot;&lt;/div&gt;&lt;div&gt;&quot;4. Jajar Genjang&quot;&lt;/div&gt;&lt;div&gt;&quot;4.1 Luas&quot;&lt;/div&gt;&lt;div&gt;&lt;div&gt;&quot;4.2. Keliling&quot;&lt;/div&gt;&lt;div&gt;&quot;5. Keluar&quot;&lt;/div&gt;&lt;div&gt;&quot;=========================================================&quot;&lt;/div&gt;&lt;/div&gt;&lt;/div&gt;&lt;div style=&quot;text-align: left;&quot;&gt;&lt;br&gt;&lt;/div&gt;" style="shape=parallelogram;perimeter=parallelogramPerimeter;whiteSpace=wrap;html=1;fixedSize=1;" parent="WIyWlLk6GJQsqaUBKTNV-1" vertex="1">
          <mxGeometry x="-235" y="70" width="470" height="290" as="geometry" />
        </mxCell>
        <mxCell id="B5mmSGYg9XK-imMD-Xx6-41" style="edgeStyle=orthogonalEdgeStyle;rounded=0;orthogonalLoop=1;jettySize=auto;html=1;exitX=0.5;exitY=1;exitDx=0;exitDy=0;" parent="WIyWlLk6GJQsqaUBKTNV-1" edge="1">
          <mxGeometry relative="1" as="geometry">
            <mxPoint x="110" y="740" as="sourcePoint" />
            <mxPoint x="110" y="740" as="targetPoint" />
          </mxGeometry>
        </mxCell>
        <mxCell id="9oWaoVra9yV_TYSD30ba-5" value="" style="edgeStyle=orthogonalEdgeStyle;rounded=0;orthogonalLoop=1;jettySize=auto;html=1;" parent="WIyWlLk6GJQsqaUBKTNV-1" edge="1">
          <mxGeometry relative="1" as="geometry">
            <mxPoint x="0.058823529411711206" y="450" as="sourcePoint" />
            <mxPoint y="490" as="targetPoint" />
          </mxGeometry>
        </mxCell>
        <mxCell id="9oWaoVra9yV_TYSD30ba-13" value="" style="edgeStyle=orthogonalEdgeStyle;rounded=0;orthogonalLoop=1;jettySize=auto;html=1;" parent="WIyWlLk6GJQsqaUBKTNV-1" source="vJaIqNY0e-Uf2tTBMrfa-0" target="9oWaoVra9yV_TYSD30ba-12" edge="1">
          <mxGeometry relative="1" as="geometry" />
        </mxCell>
        <mxCell id="9oWaoVra9yV_TYSD30ba-25" value="" style="edgeStyle=orthogonalEdgeStyle;rounded=0;orthogonalLoop=1;jettySize=auto;html=1;" parent="WIyWlLk6GJQsqaUBKTNV-1" source="vJaIqNY0e-Uf2tTBMrfa-2" edge="1">
          <mxGeometry relative="1" as="geometry">
            <mxPoint y="650" as="targetPoint" />
          </mxGeometry>
        </mxCell>
        <mxCell id="9oWaoVra9yV_TYSD30ba-3" value="menu == 1:" style="rhombus;whiteSpace=wrap;html=1;" parent="WIyWlLk6GJQsqaUBKTNV-1" vertex="1">
          <mxGeometry x="-40" y="490" width="80" height="80" as="geometry" />
        </mxCell>
        <mxCell id="9oWaoVra9yV_TYSD30ba-15" value="" style="edgeStyle=orthogonalEdgeStyle;rounded=0;orthogonalLoop=1;jettySize=auto;html=1;" parent="WIyWlLk6GJQsqaUBKTNV-1" source="vJaIqNY0e-Uf2tTBMrfa-6" target="9oWaoVra9yV_TYSD30ba-14" edge="1">
          <mxGeometry relative="1" as="geometry" />
        </mxCell>
        <mxCell id="9oWaoVra9yV_TYSD30ba-30" value="" style="edgeStyle=orthogonalEdgeStyle;rounded=0;orthogonalLoop=1;jettySize=auto;html=1;" parent="WIyWlLk6GJQsqaUBKTNV-1" source="vJaIqNY0e-Uf2tTBMrfa-4" target="9oWaoVra9yV_TYSD30ba-29" edge="1">
          <mxGeometry relative="1" as="geometry" />
        </mxCell>
        <mxCell id="9oWaoVra9yV_TYSD30ba-12" value="menu == 2:" style="rhombus;whiteSpace=wrap;html=1;" parent="WIyWlLk6GJQsqaUBKTNV-1" vertex="1">
          <mxGeometry x="155" y="490" width="80" height="80" as="geometry" />
        </mxCell>
        <mxCell id="9oWaoVra9yV_TYSD30ba-17" value="" style="edgeStyle=orthogonalEdgeStyle;rounded=0;orthogonalLoop=1;jettySize=auto;html=1;" parent="WIyWlLk6GJQsqaUBKTNV-1" source="vJaIqNY0e-Uf2tTBMrfa-8" target="9oWaoVra9yV_TYSD30ba-16" edge="1">
          <mxGeometry relative="1" as="geometry" />
        </mxCell>
        <mxCell id="9oWaoVra9yV_TYSD30ba-32" value="" style="edgeStyle=orthogonalEdgeStyle;rounded=0;orthogonalLoop=1;jettySize=auto;html=1;" parent="WIyWlLk6GJQsqaUBKTNV-1" source="vJaIqNY0e-Uf2tTBMrfa-10" target="9oWaoVra9yV_TYSD30ba-31" edge="1">
          <mxGeometry relative="1" as="geometry" />
        </mxCell>
        <mxCell id="9oWaoVra9yV_TYSD30ba-14" value="menu == 3:" style="rhombus;whiteSpace=wrap;html=1;" parent="WIyWlLk6GJQsqaUBKTNV-1" vertex="1">
          <mxGeometry x="360" y="490" width="80" height="80" as="geometry" />
        </mxCell>
        <mxCell id="9oWaoVra9yV_TYSD30ba-19" value="" style="edgeStyle=orthogonalEdgeStyle;rounded=0;orthogonalLoop=1;jettySize=auto;html=1;" parent="WIyWlLk6GJQsqaUBKTNV-1" source="vJaIqNY0e-Uf2tTBMrfa-15" target="9oWaoVra9yV_TYSD30ba-18" edge="1">
          <mxGeometry relative="1" as="geometry" />
        </mxCell>
        <mxCell id="9oWaoVra9yV_TYSD30ba-34" value="" style="edgeStyle=orthogonalEdgeStyle;rounded=0;orthogonalLoop=1;jettySize=auto;html=1;" parent="WIyWlLk6GJQsqaUBKTNV-1" source="vJaIqNY0e-Uf2tTBMrfa-12" target="9oWaoVra9yV_TYSD30ba-33" edge="1">
          <mxGeometry relative="1" as="geometry" />
        </mxCell>
        <mxCell id="9oWaoVra9yV_TYSD30ba-16" value="menu == 4:" style="rhombus;whiteSpace=wrap;html=1;" parent="WIyWlLk6GJQsqaUBKTNV-1" vertex="1">
          <mxGeometry x="560" y="490" width="80" height="80" as="geometry" />
        </mxCell>
        <mxCell id="vJaIqNY0e-Uf2tTBMrfa-235" value="" style="edgeStyle=orthogonalEdgeStyle;rounded=0;orthogonalLoop=1;jettySize=auto;html=1;" parent="WIyWlLk6GJQsqaUBKTNV-1" source="vJaIqNY0e-Uf2tTBMrfa-247" target="vJaIqNY0e-Uf2tTBMrfa-234" edge="1">
          <mxGeometry relative="1" as="geometry" />
        </mxCell>
        <mxCell id="vJaIqNY0e-Uf2tTBMrfa-238" value="" style="edgeStyle=orthogonalEdgeStyle;rounded=0;orthogonalLoop=1;jettySize=auto;html=1;" parent="WIyWlLk6GJQsqaUBKTNV-1" source="vJaIqNY0e-Uf2tTBMrfa-244" target="vJaIqNY0e-Uf2tTBMrfa-237" edge="1">
          <mxGeometry relative="1" as="geometry">
            <Array as="points">
              <mxPoint x="790" y="640" />
              <mxPoint x="1450" y="640" />
            </Array>
          </mxGeometry>
        </mxCell>
        <mxCell id="9oWaoVra9yV_TYSD30ba-18" value="menu == 5:" style="rhombus;whiteSpace=wrap;html=1;" parent="WIyWlLk6GJQsqaUBKTNV-1" vertex="1">
          <mxGeometry x="750" y="490" width="80" height="80" as="geometry" />
        </mxCell>
        <mxCell id="vJaIqNY0e-Uf2tTBMrfa-18" value="" style="edgeStyle=orthogonalEdgeStyle;rounded=0;orthogonalLoop=1;jettySize=auto;html=1;" parent="WIyWlLk6GJQsqaUBKTNV-1" target="vJaIqNY0e-Uf2tTBMrfa-17" edge="1">
          <mxGeometry relative="1" as="geometry">
            <mxPoint y="720" as="sourcePoint" />
          </mxGeometry>
        </mxCell>
        <mxCell id="9oWaoVra9yV_TYSD30ba-26" value="menu = int(input(&quot;Pilih Nomor Menu Anda : &quot;))" style="shape=parallelogram;perimeter=parallelogramPerimeter;whiteSpace=wrap;html=1;fixedSize=1;" parent="WIyWlLk6GJQsqaUBKTNV-1" vertex="1">
          <mxGeometry x="-170" y="390" width="340" height="60" as="geometry" />
        </mxCell>
        <mxCell id="9oWaoVra9yV_TYSD30ba-27" value="" style="endArrow=classic;html=1;rounded=0;" parent="WIyWlLk6GJQsqaUBKTNV-1" edge="1">
          <mxGeometry width="50" height="50" relative="1" as="geometry">
            <mxPoint x="210" y="360" as="sourcePoint" />
            <mxPoint x="290" y="360" as="targetPoint" />
          </mxGeometry>
        </mxCell>
        <mxCell id="9oWaoVra9yV_TYSD30ba-28" value="" style="endArrow=classic;html=1;rounded=0;" parent="WIyWlLk6GJQsqaUBKTNV-1" edge="1">
          <mxGeometry width="50" height="50" relative="1" as="geometry">
            <mxPoint x="-220" y="390" as="sourcePoint" />
            <mxPoint x="-150" y="390" as="targetPoint" />
          </mxGeometry>
        </mxCell>
        <mxCell id="vJaIqNY0e-Uf2tTBMrfa-70" value="" style="edgeStyle=orthogonalEdgeStyle;rounded=0;orthogonalLoop=1;jettySize=auto;html=1;" parent="WIyWlLk6GJQsqaUBKTNV-1" source="9oWaoVra9yV_TYSD30ba-29" target="vJaIqNY0e-Uf2tTBMrfa-69" edge="1">
          <mxGeometry relative="1" as="geometry">
            <Array as="points">
              <mxPoint x="195" y="760" />
            </Array>
          </mxGeometry>
        </mxCell>
        <mxCell id="9oWaoVra9yV_TYSD30ba-29" value="kategori = float(input(&quot;Masukkan Nomor Kategori (Luas Atau Keliling) : &quot;))" style="shape=parallelogram;perimeter=parallelogramPerimeter;whiteSpace=wrap;html=1;fixedSize=1;" parent="WIyWlLk6GJQsqaUBKTNV-1" vertex="1">
          <mxGeometry x="115" y="650" width="160" height="70" as="geometry" />
        </mxCell>
        <mxCell id="vJaIqNY0e-Uf2tTBMrfa-131" value="" style="edgeStyle=orthogonalEdgeStyle;rounded=0;orthogonalLoop=1;jettySize=auto;html=1;" parent="WIyWlLk6GJQsqaUBKTNV-1" source="9oWaoVra9yV_TYSD30ba-31" target="vJaIqNY0e-Uf2tTBMrfa-130" edge="1">
          <mxGeometry relative="1" as="geometry">
            <Array as="points">
              <mxPoint x="400" y="760" />
              <mxPoint x="500" y="760" />
            </Array>
          </mxGeometry>
        </mxCell>
        <mxCell id="9oWaoVra9yV_TYSD30ba-31" value="kategori = float(input(&quot;Masukkan Nomor Kategori (Luas Atau Keliling) : &quot;))" style="shape=parallelogram;perimeter=parallelogramPerimeter;whiteSpace=wrap;html=1;fixedSize=1;" parent="WIyWlLk6GJQsqaUBKTNV-1" vertex="1">
          <mxGeometry x="320" y="650" width="160" height="70" as="geometry" />
        </mxCell>
        <mxCell id="vJaIqNY0e-Uf2tTBMrfa-185" value="" style="edgeStyle=orthogonalEdgeStyle;rounded=0;orthogonalLoop=1;jettySize=auto;html=1;" parent="WIyWlLk6GJQsqaUBKTNV-1" source="9oWaoVra9yV_TYSD30ba-33" target="vJaIqNY0e-Uf2tTBMrfa-184" edge="1">
          <mxGeometry relative="1" as="geometry" />
        </mxCell>
        <mxCell id="9oWaoVra9yV_TYSD30ba-33" value="kategori = float(input(&quot;Masukkan Nomor Kategori (Luas Atau Keliling)&amp;nbsp; : &quot;))" style="shape=parallelogram;perimeter=parallelogramPerimeter;whiteSpace=wrap;html=1;fixedSize=1;" parent="WIyWlLk6GJQsqaUBKTNV-1" vertex="1">
          <mxGeometry x="518.75" y="650" width="162.5" height="70" as="geometry" />
        </mxCell>
        <mxCell id="9oWaoVra9yV_TYSD30ba-37" value="" style="endArrow=classic;html=1;rounded=0;" parent="WIyWlLk6GJQsqaUBKTNV-1" edge="1">
          <mxGeometry width="50" height="50" relative="1" as="geometry">
            <mxPoint x="-120" y="650" as="sourcePoint" />
            <mxPoint x="-70" y="650" as="targetPoint" />
            <Array as="points">
              <mxPoint x="-90" y="650" />
            </Array>
          </mxGeometry>
        </mxCell>
        <mxCell id="9oWaoVra9yV_TYSD30ba-38" value="" style="endArrow=classic;html=1;rounded=0;" parent="WIyWlLk6GJQsqaUBKTNV-1" edge="1">
          <mxGeometry width="50" height="50" relative="1" as="geometry">
            <mxPoint x="90" y="649" as="sourcePoint" />
            <mxPoint x="140" y="649" as="targetPoint" />
          </mxGeometry>
        </mxCell>
        <mxCell id="9oWaoVra9yV_TYSD30ba-39" value="" style="endArrow=classic;html=1;rounded=0;" parent="WIyWlLk6GJQsqaUBKTNV-1" edge="1">
          <mxGeometry width="50" height="50" relative="1" as="geometry">
            <mxPoint x="290" y="649" as="sourcePoint" />
            <mxPoint x="340" y="649" as="targetPoint" />
          </mxGeometry>
        </mxCell>
        <mxCell id="9oWaoVra9yV_TYSD30ba-40" value="" style="endArrow=classic;html=1;rounded=0;" parent="WIyWlLk6GJQsqaUBKTNV-1" edge="1">
          <mxGeometry width="50" height="50" relative="1" as="geometry">
            <mxPoint x="490" y="650" as="sourcePoint" />
            <mxPoint x="540" y="650" as="targetPoint" />
          </mxGeometry>
        </mxCell>
        <mxCell id="vJaIqNY0e-Uf2tTBMrfa-1" value="" style="edgeStyle=orthogonalEdgeStyle;rounded=0;orthogonalLoop=1;jettySize=auto;html=1;" parent="WIyWlLk6GJQsqaUBKTNV-1" source="9oWaoVra9yV_TYSD30ba-3" target="vJaIqNY0e-Uf2tTBMrfa-0" edge="1">
          <mxGeometry relative="1" as="geometry">
            <mxPoint x="40" y="530" as="sourcePoint" />
            <mxPoint x="155" y="530" as="targetPoint" />
          </mxGeometry>
        </mxCell>
        <mxCell id="vJaIqNY0e-Uf2tTBMrfa-0" value="No" style="text;html=1;align=center;verticalAlign=middle;whiteSpace=wrap;rounded=0;" parent="WIyWlLk6GJQsqaUBKTNV-1" vertex="1">
          <mxGeometry x="70" y="518.75" width="45" height="22.5" as="geometry" />
        </mxCell>
        <mxCell id="vJaIqNY0e-Uf2tTBMrfa-3" value="" style="edgeStyle=orthogonalEdgeStyle;rounded=0;orthogonalLoop=1;jettySize=auto;html=1;" parent="WIyWlLk6GJQsqaUBKTNV-1" source="9oWaoVra9yV_TYSD30ba-3" target="vJaIqNY0e-Uf2tTBMrfa-2" edge="1">
          <mxGeometry relative="1" as="geometry">
            <mxPoint y="570" as="sourcePoint" />
            <mxPoint y="630" as="targetPoint" />
          </mxGeometry>
        </mxCell>
        <mxCell id="vJaIqNY0e-Uf2tTBMrfa-2" value="Yes" style="text;html=1;align=center;verticalAlign=middle;whiteSpace=wrap;rounded=0;" parent="WIyWlLk6GJQsqaUBKTNV-1" vertex="1">
          <mxGeometry x="-30" y="600" width="60" height="30" as="geometry" />
        </mxCell>
        <mxCell id="vJaIqNY0e-Uf2tTBMrfa-5" value="" style="edgeStyle=orthogonalEdgeStyle;rounded=0;orthogonalLoop=1;jettySize=auto;html=1;" parent="WIyWlLk6GJQsqaUBKTNV-1" source="9oWaoVra9yV_TYSD30ba-12" target="vJaIqNY0e-Uf2tTBMrfa-4" edge="1">
          <mxGeometry relative="1" as="geometry">
            <mxPoint x="195" y="570" as="sourcePoint" />
            <mxPoint x="195" y="650" as="targetPoint" />
          </mxGeometry>
        </mxCell>
        <mxCell id="vJaIqNY0e-Uf2tTBMrfa-4" value="Yes" style="text;html=1;align=center;verticalAlign=middle;whiteSpace=wrap;rounded=0;" parent="WIyWlLk6GJQsqaUBKTNV-1" vertex="1">
          <mxGeometry x="165" y="590" width="60" height="30" as="geometry" />
        </mxCell>
        <mxCell id="vJaIqNY0e-Uf2tTBMrfa-7" value="" style="edgeStyle=orthogonalEdgeStyle;rounded=0;orthogonalLoop=1;jettySize=auto;html=1;" parent="WIyWlLk6GJQsqaUBKTNV-1" source="9oWaoVra9yV_TYSD30ba-12" target="vJaIqNY0e-Uf2tTBMrfa-6" edge="1">
          <mxGeometry relative="1" as="geometry">
            <mxPoint x="235" y="530" as="sourcePoint" />
            <mxPoint x="360" y="530" as="targetPoint" />
          </mxGeometry>
        </mxCell>
        <mxCell id="vJaIqNY0e-Uf2tTBMrfa-6" value="No" style="text;html=1;align=center;verticalAlign=middle;whiteSpace=wrap;rounded=0;" parent="WIyWlLk6GJQsqaUBKTNV-1" vertex="1">
          <mxGeometry x="260" y="515" width="60" height="30" as="geometry" />
        </mxCell>
        <mxCell id="vJaIqNY0e-Uf2tTBMrfa-9" value="" style="edgeStyle=orthogonalEdgeStyle;rounded=0;orthogonalLoop=1;jettySize=auto;html=1;" parent="WIyWlLk6GJQsqaUBKTNV-1" source="9oWaoVra9yV_TYSD30ba-14" target="vJaIqNY0e-Uf2tTBMrfa-8" edge="1">
          <mxGeometry relative="1" as="geometry">
            <mxPoint x="440" y="530" as="sourcePoint" />
            <mxPoint x="560" y="530" as="targetPoint" />
          </mxGeometry>
        </mxCell>
        <mxCell id="vJaIqNY0e-Uf2tTBMrfa-8" value="No" style="text;html=1;align=center;verticalAlign=middle;whiteSpace=wrap;rounded=0;" parent="WIyWlLk6GJQsqaUBKTNV-1" vertex="1">
          <mxGeometry x="470" y="515" width="60" height="30" as="geometry" />
        </mxCell>
        <mxCell id="vJaIqNY0e-Uf2tTBMrfa-11" value="" style="edgeStyle=orthogonalEdgeStyle;rounded=0;orthogonalLoop=1;jettySize=auto;html=1;" parent="WIyWlLk6GJQsqaUBKTNV-1" source="9oWaoVra9yV_TYSD30ba-14" target="vJaIqNY0e-Uf2tTBMrfa-10" edge="1">
          <mxGeometry relative="1" as="geometry">
            <mxPoint x="400" y="570" as="sourcePoint" />
            <mxPoint x="400" y="650" as="targetPoint" />
          </mxGeometry>
        </mxCell>
        <mxCell id="vJaIqNY0e-Uf2tTBMrfa-10" value="Yes" style="text;html=1;align=center;verticalAlign=middle;whiteSpace=wrap;rounded=0;" parent="WIyWlLk6GJQsqaUBKTNV-1" vertex="1">
          <mxGeometry x="370" y="590" width="60" height="30" as="geometry" />
        </mxCell>
        <mxCell id="vJaIqNY0e-Uf2tTBMrfa-13" value="" style="edgeStyle=orthogonalEdgeStyle;rounded=0;orthogonalLoop=1;jettySize=auto;html=1;" parent="WIyWlLk6GJQsqaUBKTNV-1" source="9oWaoVra9yV_TYSD30ba-16" target="vJaIqNY0e-Uf2tTBMrfa-12" edge="1">
          <mxGeometry relative="1" as="geometry">
            <mxPoint x="600" y="570" as="sourcePoint" />
            <mxPoint x="600" y="650" as="targetPoint" />
          </mxGeometry>
        </mxCell>
        <mxCell id="vJaIqNY0e-Uf2tTBMrfa-12" value="Yes" style="text;html=1;align=center;verticalAlign=middle;whiteSpace=wrap;rounded=0;" parent="WIyWlLk6GJQsqaUBKTNV-1" vertex="1">
          <mxGeometry x="570" y="590" width="60" height="30" as="geometry" />
        </mxCell>
        <mxCell id="vJaIqNY0e-Uf2tTBMrfa-14" value="" style="edgeStyle=orthogonalEdgeStyle;rounded=0;orthogonalLoop=1;jettySize=auto;html=1;" parent="WIyWlLk6GJQsqaUBKTNV-1" source="9oWaoVra9yV_TYSD30ba-16" target="vJaIqNY0e-Uf2tTBMrfa-15" edge="1">
          <mxGeometry relative="1" as="geometry">
            <mxPoint x="640" y="530" as="sourcePoint" />
            <mxPoint x="750" y="530" as="targetPoint" />
          </mxGeometry>
        </mxCell>
        <mxCell id="vJaIqNY0e-Uf2tTBMrfa-15" value="No" style="text;html=1;align=center;verticalAlign=middle;whiteSpace=wrap;rounded=0;" parent="WIyWlLk6GJQsqaUBKTNV-1" vertex="1">
          <mxGeometry x="660" y="515" width="60" height="30" as="geometry" />
        </mxCell>
        <mxCell id="vJaIqNY0e-Uf2tTBMrfa-43" value="" style="edgeStyle=orthogonalEdgeStyle;rounded=0;orthogonalLoop=1;jettySize=auto;html=1;" parent="WIyWlLk6GJQsqaUBKTNV-1" source="vJaIqNY0e-Uf2tTBMrfa-45" target="vJaIqNY0e-Uf2tTBMrfa-42" edge="1">
          <mxGeometry relative="1" as="geometry" />
        </mxCell>
        <mxCell id="vJaIqNY0e-Uf2tTBMrfa-17" value="kategori == 1.1:" style="rhombus;whiteSpace=wrap;html=1;" parent="WIyWlLk6GJQsqaUBKTNV-1" vertex="1">
          <mxGeometry x="-720" y="780" width="80" height="80" as="geometry" />
        </mxCell>
        <mxCell id="vJaIqNY0e-Uf2tTBMrfa-30" value="" style="edgeStyle=orthogonalEdgeStyle;rounded=0;orthogonalLoop=1;jettySize=auto;html=1;" parent="WIyWlLk6GJQsqaUBKTNV-1" source="vJaIqNY0e-Uf2tTBMrfa-21" target="vJaIqNY0e-Uf2tTBMrfa-29" edge="1">
          <mxGeometry relative="1" as="geometry" />
        </mxCell>
        <mxCell id="vJaIqNY0e-Uf2tTBMrfa-21" value="&quot;Rumus Luas Persegi = sisi *&amp;nbsp;sisi&amp;nbsp;&quot;" style="shape=parallelogram;perimeter=parallelogramPerimeter;whiteSpace=wrap;html=1;fixedSize=1;" parent="WIyWlLk6GJQsqaUBKTNV-1" vertex="1">
          <mxGeometry x="-750" y="940" width="140" height="60" as="geometry" />
        </mxCell>
        <mxCell id="vJaIqNY0e-Uf2tTBMrfa-23" value="kategori = float(input(&quot;Masukkan Nomor Kategori (Luas Atau Keliling) : &quot;))" style="shape=parallelogram;perimeter=parallelogramPerimeter;whiteSpace=wrap;html=1;fixedSize=1;" parent="WIyWlLk6GJQsqaUBKTNV-1" vertex="1">
          <mxGeometry x="-90" y="650" width="160" height="70" as="geometry" />
        </mxCell>
        <mxCell id="vJaIqNY0e-Uf2tTBMrfa-25" value="" style="endArrow=classic;html=1;rounded=0;" parent="WIyWlLk6GJQsqaUBKTNV-1" edge="1">
          <mxGeometry width="50" height="50" relative="1" as="geometry">
            <mxPoint x="-630" y="1000" as="sourcePoint" />
            <mxPoint x="-570" y="1000" as="targetPoint" />
          </mxGeometry>
        </mxCell>
        <mxCell id="vJaIqNY0e-Uf2tTBMrfa-27" value="" style="edgeStyle=orthogonalEdgeStyle;rounded=0;orthogonalLoop=1;jettySize=auto;html=1;" parent="WIyWlLk6GJQsqaUBKTNV-1" source="vJaIqNY0e-Uf2tTBMrfa-17" target="vJaIqNY0e-Uf2tTBMrfa-26" edge="1">
          <mxGeometry relative="1" as="geometry">
            <mxPoint y="830" as="sourcePoint" />
            <mxPoint y="900" as="targetPoint" />
          </mxGeometry>
        </mxCell>
        <mxCell id="vJaIqNY0e-Uf2tTBMrfa-44" value="" style="edgeStyle=orthogonalEdgeStyle;rounded=0;orthogonalLoop=1;jettySize=auto;html=1;" parent="WIyWlLk6GJQsqaUBKTNV-1" source="vJaIqNY0e-Uf2tTBMrfa-26" target="vJaIqNY0e-Uf2tTBMrfa-21" edge="1">
          <mxGeometry relative="1" as="geometry" />
        </mxCell>
        <mxCell id="vJaIqNY0e-Uf2tTBMrfa-26" value="Yes" style="text;html=1;align=center;verticalAlign=middle;whiteSpace=wrap;rounded=0;" parent="WIyWlLk6GJQsqaUBKTNV-1" vertex="1">
          <mxGeometry x="-710" y="880" width="60" height="30" as="geometry" />
        </mxCell>
        <mxCell id="vJaIqNY0e-Uf2tTBMrfa-32" value="" style="edgeStyle=orthogonalEdgeStyle;rounded=0;orthogonalLoop=1;jettySize=auto;html=1;" parent="WIyWlLk6GJQsqaUBKTNV-1" source="vJaIqNY0e-Uf2tTBMrfa-29" target="vJaIqNY0e-Uf2tTBMrfa-31" edge="1">
          <mxGeometry relative="1" as="geometry" />
        </mxCell>
        <mxCell id="vJaIqNY0e-Uf2tTBMrfa-29" value="sisi = float(input(&quot;Masukkan Sisi Persegi (cm) : &quot;))" style="shape=parallelogram;perimeter=parallelogramPerimeter;whiteSpace=wrap;html=1;fixedSize=1;" parent="WIyWlLk6GJQsqaUBKTNV-1" vertex="1">
          <mxGeometry x="-760" y="1040" width="160" height="60" as="geometry" />
        </mxCell>
        <mxCell id="vJaIqNY0e-Uf2tTBMrfa-35" value="" style="edgeStyle=orthogonalEdgeStyle;rounded=0;orthogonalLoop=1;jettySize=auto;html=1;" parent="WIyWlLk6GJQsqaUBKTNV-1" source="vJaIqNY0e-Uf2tTBMrfa-31" target="vJaIqNY0e-Uf2tTBMrfa-34" edge="1">
          <mxGeometry relative="1" as="geometry" />
        </mxCell>
        <mxCell id="vJaIqNY0e-Uf2tTBMrfa-31" value="luas = sisi * sisi" style="rounded=0;whiteSpace=wrap;html=1;" parent="WIyWlLk6GJQsqaUBKTNV-1" vertex="1">
          <mxGeometry x="-740" y="1150" width="120" height="60" as="geometry" />
        </mxCell>
        <mxCell id="vJaIqNY0e-Uf2tTBMrfa-33" value="" style="endArrow=classic;html=1;rounded=0;" parent="WIyWlLk6GJQsqaUBKTNV-1" edge="1">
          <mxGeometry width="50" height="50" relative="1" as="geometry">
            <mxPoint x="-800" y="1040" as="sourcePoint" />
            <mxPoint x="-740" y="1040" as="targetPoint" />
          </mxGeometry>
        </mxCell>
        <mxCell id="vJaIqNY0e-Uf2tTBMrfa-37" value="" style="edgeStyle=orthogonalEdgeStyle;rounded=0;orthogonalLoop=1;jettySize=auto;html=1;" parent="WIyWlLk6GJQsqaUBKTNV-1" source="vJaIqNY0e-Uf2tTBMrfa-34" target="vJaIqNY0e-Uf2tTBMrfa-36" edge="1">
          <mxGeometry relative="1" as="geometry" />
        </mxCell>
        <mxCell id="vJaIqNY0e-Uf2tTBMrfa-34" value="&quot; Luas Persegi Adalah : &quot;, float(luas), &quot;cm&quot;)" style="shape=parallelogram;perimeter=parallelogramPerimeter;whiteSpace=wrap;html=1;fixedSize=1;" parent="WIyWlLk6GJQsqaUBKTNV-1" vertex="1">
          <mxGeometry x="-780" y="1280" width="200" height="60" as="geometry" />
        </mxCell>
        <mxCell id="vJaIqNY0e-Uf2tTBMrfa-36" value="&lt;div style=&quot;text-align: left;&quot;&gt;&quot;===================&quot;&lt;/div&gt;" style="shape=parallelogram;perimeter=parallelogramPerimeter;whiteSpace=wrap;html=1;fixedSize=1;" parent="WIyWlLk6GJQsqaUBKTNV-1" vertex="1">
          <mxGeometry x="-772.5" y="1420" width="185" height="60" as="geometry" />
        </mxCell>
        <mxCell id="vJaIqNY0e-Uf2tTBMrfa-41" value="" style="endArrow=classic;html=1;rounded=0;" parent="WIyWlLk6GJQsqaUBKTNV-1" edge="1">
          <mxGeometry width="50" height="50" relative="1" as="geometry">
            <mxPoint x="-600" y="1340" as="sourcePoint" />
            <mxPoint x="-550" y="1340" as="targetPoint" />
            <Array as="points">
              <mxPoint x="-580" y="1340" />
            </Array>
          </mxGeometry>
        </mxCell>
        <mxCell id="vJaIqNY0e-Uf2tTBMrfa-60" value="" style="edgeStyle=orthogonalEdgeStyle;rounded=0;orthogonalLoop=1;jettySize=auto;html=1;" parent="WIyWlLk6GJQsqaUBKTNV-1" source="vJaIqNY0e-Uf2tTBMrfa-72" target="vJaIqNY0e-Uf2tTBMrfa-47" edge="1">
          <mxGeometry relative="1" as="geometry" />
        </mxCell>
        <mxCell id="vJaIqNY0e-Uf2tTBMrfa-66" value="" style="edgeStyle=orthogonalEdgeStyle;rounded=0;orthogonalLoop=1;jettySize=auto;html=1;" parent="WIyWlLk6GJQsqaUBKTNV-1" source="vJaIqNY0e-Uf2tTBMrfa-67" target="vJaIqNY0e-Uf2tTBMrfa-65" edge="1">
          <mxGeometry relative="1" as="geometry" />
        </mxCell>
        <mxCell id="vJaIqNY0e-Uf2tTBMrfa-42" value="kategori == 1.2:" style="rhombus;whiteSpace=wrap;html=1;" parent="WIyWlLk6GJQsqaUBKTNV-1" vertex="1">
          <mxGeometry x="-493" y="780" width="80" height="80" as="geometry" />
        </mxCell>
        <mxCell id="vJaIqNY0e-Uf2tTBMrfa-46" value="" style="edgeStyle=orthogonalEdgeStyle;rounded=0;orthogonalLoop=1;jettySize=auto;html=1;" parent="WIyWlLk6GJQsqaUBKTNV-1" source="vJaIqNY0e-Uf2tTBMrfa-17" target="vJaIqNY0e-Uf2tTBMrfa-45" edge="1">
          <mxGeometry relative="1" as="geometry">
            <mxPoint x="-640" y="800" as="sourcePoint" />
            <mxPoint x="-520" y="800" as="targetPoint" />
          </mxGeometry>
        </mxCell>
        <mxCell id="vJaIqNY0e-Uf2tTBMrfa-45" value="No" style="text;html=1;align=center;verticalAlign=middle;whiteSpace=wrap;rounded=0;" parent="WIyWlLk6GJQsqaUBKTNV-1" vertex="1">
          <mxGeometry x="-599.5" y="805" width="60" height="30" as="geometry" />
        </mxCell>
        <mxCell id="vJaIqNY0e-Uf2tTBMrfa-61" value="" style="edgeStyle=orthogonalEdgeStyle;rounded=0;orthogonalLoop=1;jettySize=auto;html=1;" parent="WIyWlLk6GJQsqaUBKTNV-1" source="vJaIqNY0e-Uf2tTBMrfa-47" target="vJaIqNY0e-Uf2tTBMrfa-48" edge="1">
          <mxGeometry relative="1" as="geometry" />
        </mxCell>
        <mxCell id="vJaIqNY0e-Uf2tTBMrfa-47" value="&quot;Rumus Keliling Persegi = 4 *&amp;nbsp;sisi&amp;nbsp;&quot;" style="shape=parallelogram;perimeter=parallelogramPerimeter;whiteSpace=wrap;html=1;fixedSize=1;" parent="WIyWlLk6GJQsqaUBKTNV-1" vertex="1">
          <mxGeometry x="-524.5" y="940" width="143" height="60" as="geometry" />
        </mxCell>
        <mxCell id="vJaIqNY0e-Uf2tTBMrfa-62" value="" style="edgeStyle=orthogonalEdgeStyle;rounded=0;orthogonalLoop=1;jettySize=auto;html=1;" parent="WIyWlLk6GJQsqaUBKTNV-1" source="vJaIqNY0e-Uf2tTBMrfa-48" target="vJaIqNY0e-Uf2tTBMrfa-49" edge="1">
          <mxGeometry relative="1" as="geometry" />
        </mxCell>
        <mxCell id="vJaIqNY0e-Uf2tTBMrfa-48" value="sisi = float(input(&quot;Masukkan Sisi Persegi (cm) : &quot;))" style="shape=parallelogram;perimeter=parallelogramPerimeter;whiteSpace=wrap;html=1;fixedSize=1;" parent="WIyWlLk6GJQsqaUBKTNV-1" vertex="1">
          <mxGeometry x="-534.5" y="1040" width="163" height="60" as="geometry" />
        </mxCell>
        <mxCell id="vJaIqNY0e-Uf2tTBMrfa-63" value="" style="edgeStyle=orthogonalEdgeStyle;rounded=0;orthogonalLoop=1;jettySize=auto;html=1;" parent="WIyWlLk6GJQsqaUBKTNV-1" source="vJaIqNY0e-Uf2tTBMrfa-49" target="vJaIqNY0e-Uf2tTBMrfa-51" edge="1">
          <mxGeometry relative="1" as="geometry" />
        </mxCell>
        <mxCell id="vJaIqNY0e-Uf2tTBMrfa-49" value="keliling = 4 * sisi" style="rounded=0;whiteSpace=wrap;html=1;" parent="WIyWlLk6GJQsqaUBKTNV-1" vertex="1">
          <mxGeometry x="-513" y="1150" width="120" height="60" as="geometry" />
        </mxCell>
        <mxCell id="vJaIqNY0e-Uf2tTBMrfa-64" value="" style="edgeStyle=orthogonalEdgeStyle;rounded=0;orthogonalLoop=1;jettySize=auto;html=1;" parent="WIyWlLk6GJQsqaUBKTNV-1" source="vJaIqNY0e-Uf2tTBMrfa-51" target="vJaIqNY0e-Uf2tTBMrfa-55" edge="1">
          <mxGeometry relative="1" as="geometry" />
        </mxCell>
        <mxCell id="vJaIqNY0e-Uf2tTBMrfa-51" value="&quot; Keliling Persegi Adalah : &quot;, float(keliling), &quot;cm&quot;)" style="shape=parallelogram;perimeter=parallelogramPerimeter;whiteSpace=wrap;html=1;fixedSize=1;" parent="WIyWlLk6GJQsqaUBKTNV-1" vertex="1">
          <mxGeometry x="-542.75" y="1280" width="179.5" height="60" as="geometry" />
        </mxCell>
        <mxCell id="vJaIqNY0e-Uf2tTBMrfa-54" value="" style="endArrow=classic;html=1;rounded=0;" parent="WIyWlLk6GJQsqaUBKTNV-1" edge="1">
          <mxGeometry width="50" height="50" relative="1" as="geometry">
            <mxPoint x="-573" y="1040" as="sourcePoint" />
            <mxPoint x="-513" y="1040" as="targetPoint" />
          </mxGeometry>
        </mxCell>
        <mxCell id="Ia85nuK7yf_Ye7YYZjxz-3" value="" style="edgeStyle=orthogonalEdgeStyle;rounded=0;orthogonalLoop=1;jettySize=auto;html=1;entryX=0;entryY=0.5;entryDx=0;entryDy=0;" edge="1" parent="WIyWlLk6GJQsqaUBKTNV-1" source="vJaIqNY0e-Uf2tTBMrfa-55" target="Ia85nuK7yf_Ye7YYZjxz-10">
          <mxGeometry relative="1" as="geometry">
            <mxPoint x="-50" y="1840" as="targetPoint" />
            <Array as="points">
              <mxPoint x="-453" y="1520" />
              <mxPoint x="-452" y="1840" />
            </Array>
          </mxGeometry>
        </mxCell>
        <mxCell id="vJaIqNY0e-Uf2tTBMrfa-55" value="&quot;==================&quot;" style="shape=parallelogram;perimeter=parallelogramPerimeter;whiteSpace=wrap;html=1;fixedSize=1;" parent="WIyWlLk6GJQsqaUBKTNV-1" vertex="1">
          <mxGeometry x="-539.5" y="1420" width="173" height="60" as="geometry" />
        </mxCell>
        <mxCell id="vJaIqNY0e-Uf2tTBMrfa-56" value="" style="endArrow=classic;html=1;rounded=0;" parent="WIyWlLk6GJQsqaUBKTNV-1" edge="1">
          <mxGeometry width="50" height="50" relative="1" as="geometry">
            <mxPoint x="-600" y="1480" as="sourcePoint" />
            <mxPoint x="-560" y="1480" as="targetPoint" />
          </mxGeometry>
        </mxCell>
        <mxCell id="vJaIqNY0e-Uf2tTBMrfa-57" value="" style="endArrow=classic;html=1;rounded=0;" parent="WIyWlLk6GJQsqaUBKTNV-1" edge="1">
          <mxGeometry width="50" height="50" relative="1" as="geometry">
            <mxPoint x="-400" y="999" as="sourcePoint" />
            <mxPoint x="-350" y="999" as="targetPoint" />
          </mxGeometry>
        </mxCell>
        <mxCell id="vJaIqNY0e-Uf2tTBMrfa-58" value="" style="endArrow=classic;html=1;rounded=0;" parent="WIyWlLk6GJQsqaUBKTNV-1" edge="1">
          <mxGeometry width="50" height="50" relative="1" as="geometry">
            <mxPoint x="-393" y="1340" as="sourcePoint" />
            <mxPoint x="-350" y="1340" as="targetPoint" />
          </mxGeometry>
        </mxCell>
        <mxCell id="vJaIqNY0e-Uf2tTBMrfa-59" value="" style="endArrow=classic;html=1;rounded=0;" parent="WIyWlLk6GJQsqaUBKTNV-1" edge="1">
          <mxGeometry width="50" height="50" relative="1" as="geometry">
            <mxPoint x="-393" y="1480" as="sourcePoint" />
            <mxPoint x="-350" y="1480" as="targetPoint" />
          </mxGeometry>
        </mxCell>
        <mxCell id="vJaIqNY0e-Uf2tTBMrfa-65" value="&quot;Error&quot;" style="shape=parallelogram;perimeter=parallelogramPerimeter;whiteSpace=wrap;html=1;fixedSize=1;" parent="WIyWlLk6GJQsqaUBKTNV-1" vertex="1">
          <mxGeometry x="-310" y="790" width="120" height="60" as="geometry" />
        </mxCell>
        <mxCell id="vJaIqNY0e-Uf2tTBMrfa-68" value="" style="edgeStyle=orthogonalEdgeStyle;rounded=0;orthogonalLoop=1;jettySize=auto;html=1;" parent="WIyWlLk6GJQsqaUBKTNV-1" source="vJaIqNY0e-Uf2tTBMrfa-42" target="vJaIqNY0e-Uf2tTBMrfa-67" edge="1">
          <mxGeometry relative="1" as="geometry">
            <mxPoint x="-413" y="800" as="sourcePoint" />
            <mxPoint x="-330" y="800" as="targetPoint" />
          </mxGeometry>
        </mxCell>
        <mxCell id="vJaIqNY0e-Uf2tTBMrfa-67" value="No" style="text;html=1;align=center;verticalAlign=middle;whiteSpace=wrap;rounded=0;" parent="WIyWlLk6GJQsqaUBKTNV-1" vertex="1">
          <mxGeometry x="-393" y="805" width="60" height="30" as="geometry" />
        </mxCell>
        <mxCell id="vJaIqNY0e-Uf2tTBMrfa-76" value="" style="edgeStyle=orthogonalEdgeStyle;rounded=0;orthogonalLoop=1;jettySize=auto;html=1;" parent="WIyWlLk6GJQsqaUBKTNV-1" source="vJaIqNY0e-Uf2tTBMrfa-77" target="vJaIqNY0e-Uf2tTBMrfa-75" edge="1">
          <mxGeometry relative="1" as="geometry" />
        </mxCell>
        <mxCell id="vJaIqNY0e-Uf2tTBMrfa-97" value="" style="edgeStyle=orthogonalEdgeStyle;rounded=0;orthogonalLoop=1;jettySize=auto;html=1;" parent="WIyWlLk6GJQsqaUBKTNV-1" source="vJaIqNY0e-Uf2tTBMrfa-98" target="vJaIqNY0e-Uf2tTBMrfa-96" edge="1">
          <mxGeometry relative="1" as="geometry" />
        </mxCell>
        <mxCell id="vJaIqNY0e-Uf2tTBMrfa-69" value="kategori == 2.1:" style="rhombus;whiteSpace=wrap;html=1;" parent="WIyWlLk6GJQsqaUBKTNV-1" vertex="1">
          <mxGeometry x="-130" y="780" width="80" height="80" as="geometry" />
        </mxCell>
        <mxCell id="vJaIqNY0e-Uf2tTBMrfa-73" value="" style="edgeStyle=orthogonalEdgeStyle;rounded=0;orthogonalLoop=1;jettySize=auto;html=1;" parent="WIyWlLk6GJQsqaUBKTNV-1" source="vJaIqNY0e-Uf2tTBMrfa-42" target="vJaIqNY0e-Uf2tTBMrfa-72" edge="1">
          <mxGeometry relative="1" as="geometry">
            <mxPoint x="-453" y="860" as="sourcePoint" />
            <mxPoint x="-453" y="940" as="targetPoint" />
          </mxGeometry>
        </mxCell>
        <mxCell id="vJaIqNY0e-Uf2tTBMrfa-72" value="Yes" style="text;html=1;align=center;verticalAlign=middle;whiteSpace=wrap;rounded=0;" parent="WIyWlLk6GJQsqaUBKTNV-1" vertex="1">
          <mxGeometry x="-483" y="880" width="60" height="30" as="geometry" />
        </mxCell>
        <mxCell id="vJaIqNY0e-Uf2tTBMrfa-74" value="" style="endArrow=classic;html=1;rounded=0;" parent="WIyWlLk6GJQsqaUBKTNV-1" edge="1">
          <mxGeometry width="50" height="50" relative="1" as="geometry">
            <mxPoint x="-210" y="850" as="sourcePoint" />
            <mxPoint x="-150" y="850" as="targetPoint" />
          </mxGeometry>
        </mxCell>
        <mxCell id="vJaIqNY0e-Uf2tTBMrfa-81" value="" style="edgeStyle=orthogonalEdgeStyle;rounded=0;orthogonalLoop=1;jettySize=auto;html=1;" parent="WIyWlLk6GJQsqaUBKTNV-1" source="vJaIqNY0e-Uf2tTBMrfa-75" target="vJaIqNY0e-Uf2tTBMrfa-80" edge="1">
          <mxGeometry relative="1" as="geometry" />
        </mxCell>
        <mxCell id="vJaIqNY0e-Uf2tTBMrfa-75" value="&quot;Rumus Luas Persegi Panjang = panjang * lebar &quot;" style="shape=parallelogram;perimeter=parallelogramPerimeter;whiteSpace=wrap;html=1;fixedSize=1;" parent="WIyWlLk6GJQsqaUBKTNV-1" vertex="1">
          <mxGeometry x="-172.5" y="940" width="165" height="60" as="geometry" />
        </mxCell>
        <mxCell id="vJaIqNY0e-Uf2tTBMrfa-78" value="" style="edgeStyle=orthogonalEdgeStyle;rounded=0;orthogonalLoop=1;jettySize=auto;html=1;" parent="WIyWlLk6GJQsqaUBKTNV-1" source="vJaIqNY0e-Uf2tTBMrfa-69" target="vJaIqNY0e-Uf2tTBMrfa-77" edge="1">
          <mxGeometry relative="1" as="geometry">
            <mxPoint x="-90" y="860" as="sourcePoint" />
            <mxPoint x="-90" y="940" as="targetPoint" />
          </mxGeometry>
        </mxCell>
        <mxCell id="vJaIqNY0e-Uf2tTBMrfa-77" value="Yes" style="text;html=1;align=center;verticalAlign=middle;whiteSpace=wrap;rounded=0;" parent="WIyWlLk6GJQsqaUBKTNV-1" vertex="1">
          <mxGeometry x="-120" y="880" width="60" height="30" as="geometry" />
        </mxCell>
        <mxCell id="vJaIqNY0e-Uf2tTBMrfa-79" value="" style="endArrow=classic;html=1;rounded=0;" parent="WIyWlLk6GJQsqaUBKTNV-1" edge="1">
          <mxGeometry width="50" height="50" relative="1" as="geometry">
            <mxPoint x="-30" y="1000" as="sourcePoint" />
            <mxPoint x="20" y="1000" as="targetPoint" />
          </mxGeometry>
        </mxCell>
        <mxCell id="vJaIqNY0e-Uf2tTBMrfa-84" value="" style="edgeStyle=orthogonalEdgeStyle;rounded=0;orthogonalLoop=1;jettySize=auto;html=1;" parent="WIyWlLk6GJQsqaUBKTNV-1" source="vJaIqNY0e-Uf2tTBMrfa-80" target="vJaIqNY0e-Uf2tTBMrfa-83" edge="1">
          <mxGeometry relative="1" as="geometry" />
        </mxCell>
        <mxCell id="vJaIqNY0e-Uf2tTBMrfa-80" value="panjang = float(input(&quot;Masukkan Panjang Persegi Panjang (cm) : &quot;))" style="shape=parallelogram;perimeter=parallelogramPerimeter;whiteSpace=wrap;html=1;fixedSize=1;" parent="WIyWlLk6GJQsqaUBKTNV-1" vertex="1">
          <mxGeometry x="-171.25" y="1040" width="162.5" height="60" as="geometry" />
        </mxCell>
        <mxCell id="vJaIqNY0e-Uf2tTBMrfa-82" value="" style="endArrow=classic;html=1;rounded=0;" parent="WIyWlLk6GJQsqaUBKTNV-1" edge="1">
          <mxGeometry width="50" height="50" relative="1" as="geometry">
            <mxPoint x="-200" y="1040" as="sourcePoint" />
            <mxPoint x="-150" y="1040" as="targetPoint" />
          </mxGeometry>
        </mxCell>
        <mxCell id="vJaIqNY0e-Uf2tTBMrfa-89" value="" style="edgeStyle=orthogonalEdgeStyle;rounded=0;orthogonalLoop=1;jettySize=auto;html=1;" parent="WIyWlLk6GJQsqaUBKTNV-1" source="vJaIqNY0e-Uf2tTBMrfa-83" target="vJaIqNY0e-Uf2tTBMrfa-88" edge="1">
          <mxGeometry relative="1" as="geometry" />
        </mxCell>
        <mxCell id="vJaIqNY0e-Uf2tTBMrfa-83" value="lebar = float(input(&quot;Masukkan Lebar Persegi Panjang (cm) : &quot;))" style="shape=parallelogram;perimeter=parallelogramPerimeter;whiteSpace=wrap;html=1;fixedSize=1;" parent="WIyWlLk6GJQsqaUBKTNV-1" vertex="1">
          <mxGeometry x="-180.62" y="1150" width="181.25" height="60" as="geometry" />
        </mxCell>
        <mxCell id="vJaIqNY0e-Uf2tTBMrfa-85" value="" style="endArrow=classic;html=1;rounded=0;" parent="WIyWlLk6GJQsqaUBKTNV-1" edge="1">
          <mxGeometry width="50" height="50" relative="1" as="geometry">
            <mxPoint x="-210" y="1150" as="sourcePoint" />
            <mxPoint x="-160" y="1150" as="targetPoint" />
          </mxGeometry>
        </mxCell>
        <mxCell id="vJaIqNY0e-Uf2tTBMrfa-91" value="" style="edgeStyle=orthogonalEdgeStyle;rounded=0;orthogonalLoop=1;jettySize=auto;html=1;" parent="WIyWlLk6GJQsqaUBKTNV-1" source="vJaIqNY0e-Uf2tTBMrfa-88" target="vJaIqNY0e-Uf2tTBMrfa-90" edge="1">
          <mxGeometry relative="1" as="geometry" />
        </mxCell>
        <mxCell id="vJaIqNY0e-Uf2tTBMrfa-88" value="luas = panjang * lebar" style="whiteSpace=wrap;html=1;" parent="WIyWlLk6GJQsqaUBKTNV-1" vertex="1">
          <mxGeometry x="-149.995" y="1280" width="120" height="60" as="geometry" />
        </mxCell>
        <mxCell id="vJaIqNY0e-Uf2tTBMrfa-94" value="" style="edgeStyle=orthogonalEdgeStyle;rounded=0;orthogonalLoop=1;jettySize=auto;html=1;" parent="WIyWlLk6GJQsqaUBKTNV-1" source="vJaIqNY0e-Uf2tTBMrfa-90" target="vJaIqNY0e-Uf2tTBMrfa-93" edge="1">
          <mxGeometry relative="1" as="geometry" />
        </mxCell>
        <mxCell id="vJaIqNY0e-Uf2tTBMrfa-90" value="&quot; Luas Persegi Panjang Adalah : &quot;, float(luas), &quot;cm&quot;)" style="shape=parallelogram;perimeter=parallelogramPerimeter;whiteSpace=wrap;html=1;fixedSize=1;" parent="WIyWlLk6GJQsqaUBKTNV-1" vertex="1">
          <mxGeometry x="-177.5" y="1420" width="175" height="60" as="geometry" />
        </mxCell>
        <mxCell id="vJaIqNY0e-Uf2tTBMrfa-92" value="" style="endArrow=classic;html=1;rounded=0;" parent="WIyWlLk6GJQsqaUBKTNV-1" edge="1">
          <mxGeometry width="50" height="50" relative="1" as="geometry">
            <mxPoint x="-30" y="1480" as="sourcePoint" />
            <mxPoint x="20" y="1480" as="targetPoint" />
          </mxGeometry>
        </mxCell>
        <mxCell id="vJaIqNY0e-Uf2tTBMrfa-93" value="&quot;=================&quot;" style="shape=parallelogram;perimeter=parallelogramPerimeter;whiteSpace=wrap;html=1;fixedSize=1;" parent="WIyWlLk6GJQsqaUBKTNV-1" vertex="1">
          <mxGeometry x="-170.93" y="1560" width="161.87" height="60" as="geometry" />
        </mxCell>
        <mxCell id="vJaIqNY0e-Uf2tTBMrfa-95" value="" style="endArrow=classic;html=1;rounded=0;" parent="WIyWlLk6GJQsqaUBKTNV-1" edge="1">
          <mxGeometry width="50" height="50" relative="1" as="geometry">
            <mxPoint x="-30" y="1620" as="sourcePoint" />
            <mxPoint x="20" y="1620" as="targetPoint" />
          </mxGeometry>
        </mxCell>
        <mxCell id="vJaIqNY0e-Uf2tTBMrfa-101" value="" style="edgeStyle=orthogonalEdgeStyle;rounded=0;orthogonalLoop=1;jettySize=auto;html=1;" parent="WIyWlLk6GJQsqaUBKTNV-1" source="vJaIqNY0e-Uf2tTBMrfa-102" target="vJaIqNY0e-Uf2tTBMrfa-100" edge="1">
          <mxGeometry relative="1" as="geometry" />
        </mxCell>
        <mxCell id="vJaIqNY0e-Uf2tTBMrfa-121" value="" style="edgeStyle=orthogonalEdgeStyle;rounded=0;orthogonalLoop=1;jettySize=auto;html=1;" parent="WIyWlLk6GJQsqaUBKTNV-1" source="vJaIqNY0e-Uf2tTBMrfa-122" target="vJaIqNY0e-Uf2tTBMrfa-120" edge="1">
          <mxGeometry relative="1" as="geometry" />
        </mxCell>
        <mxCell id="vJaIqNY0e-Uf2tTBMrfa-96" value="kategori == 2.2:" style="rhombus;whiteSpace=wrap;html=1;" parent="WIyWlLk6GJQsqaUBKTNV-1" vertex="1">
          <mxGeometry x="85" y="780" width="80" height="80" as="geometry" />
        </mxCell>
        <mxCell id="vJaIqNY0e-Uf2tTBMrfa-99" value="" style="edgeStyle=orthogonalEdgeStyle;rounded=0;orthogonalLoop=1;jettySize=auto;html=1;" parent="WIyWlLk6GJQsqaUBKTNV-1" source="vJaIqNY0e-Uf2tTBMrfa-69" target="vJaIqNY0e-Uf2tTBMrfa-98" edge="1">
          <mxGeometry relative="1" as="geometry">
            <mxPoint x="-50" y="820" as="sourcePoint" />
            <mxPoint x="60" y="820" as="targetPoint" />
          </mxGeometry>
        </mxCell>
        <mxCell id="vJaIqNY0e-Uf2tTBMrfa-98" value="No" style="text;html=1;align=center;verticalAlign=middle;whiteSpace=wrap;rounded=0;" parent="WIyWlLk6GJQsqaUBKTNV-1" vertex="1">
          <mxGeometry x="-20" y="805" width="60" height="30" as="geometry" />
        </mxCell>
        <mxCell id="vJaIqNY0e-Uf2tTBMrfa-106" value="" style="edgeStyle=orthogonalEdgeStyle;rounded=0;orthogonalLoop=1;jettySize=auto;html=1;" parent="WIyWlLk6GJQsqaUBKTNV-1" source="vJaIqNY0e-Uf2tTBMrfa-100" target="vJaIqNY0e-Uf2tTBMrfa-105" edge="1">
          <mxGeometry relative="1" as="geometry" />
        </mxCell>
        <mxCell id="vJaIqNY0e-Uf2tTBMrfa-100" value="&quot;Rumus Keliling Persegi Panjang = 2 * (panjang + lebar)&quot;" style="shape=parallelogram;perimeter=parallelogramPerimeter;whiteSpace=wrap;html=1;fixedSize=1;" parent="WIyWlLk6GJQsqaUBKTNV-1" vertex="1">
          <mxGeometry x="40" y="940" width="170" height="60" as="geometry" />
        </mxCell>
        <mxCell id="vJaIqNY0e-Uf2tTBMrfa-103" value="" style="edgeStyle=orthogonalEdgeStyle;rounded=0;orthogonalLoop=1;jettySize=auto;html=1;" parent="WIyWlLk6GJQsqaUBKTNV-1" source="vJaIqNY0e-Uf2tTBMrfa-96" target="vJaIqNY0e-Uf2tTBMrfa-102" edge="1">
          <mxGeometry relative="1" as="geometry">
            <mxPoint x="125" y="860" as="sourcePoint" />
            <mxPoint x="125" y="940" as="targetPoint" />
          </mxGeometry>
        </mxCell>
        <mxCell id="vJaIqNY0e-Uf2tTBMrfa-102" value="Yes" style="text;html=1;align=center;verticalAlign=middle;whiteSpace=wrap;rounded=0;" parent="WIyWlLk6GJQsqaUBKTNV-1" vertex="1">
          <mxGeometry x="95" y="880" width="60" height="30" as="geometry" />
        </mxCell>
        <mxCell id="vJaIqNY0e-Uf2tTBMrfa-104" value="" style="endArrow=classic;html=1;rounded=0;" parent="WIyWlLk6GJQsqaUBKTNV-1" edge="1">
          <mxGeometry width="50" height="50" relative="1" as="geometry">
            <mxPoint x="190" y="1000" as="sourcePoint" />
            <mxPoint x="240" y="1000" as="targetPoint" />
          </mxGeometry>
        </mxCell>
        <mxCell id="vJaIqNY0e-Uf2tTBMrfa-108" value="" style="edgeStyle=orthogonalEdgeStyle;rounded=0;orthogonalLoop=1;jettySize=auto;html=1;" parent="WIyWlLk6GJQsqaUBKTNV-1" source="vJaIqNY0e-Uf2tTBMrfa-105" target="vJaIqNY0e-Uf2tTBMrfa-107" edge="1">
          <mxGeometry relative="1" as="geometry" />
        </mxCell>
        <mxCell id="vJaIqNY0e-Uf2tTBMrfa-105" value="panjang = float(input(&quot;Masukkan Panjang Persegi Panjang (cm) : &quot;))" style="shape=parallelogram;perimeter=parallelogramPerimeter;whiteSpace=wrap;html=1;fixedSize=1;" parent="WIyWlLk6GJQsqaUBKTNV-1" vertex="1">
          <mxGeometry x="43.75" y="1040" width="162.5" height="60" as="geometry" />
        </mxCell>
        <mxCell id="vJaIqNY0e-Uf2tTBMrfa-113" value="" style="edgeStyle=orthogonalEdgeStyle;rounded=0;orthogonalLoop=1;jettySize=auto;html=1;" parent="WIyWlLk6GJQsqaUBKTNV-1" source="vJaIqNY0e-Uf2tTBMrfa-107" target="vJaIqNY0e-Uf2tTBMrfa-112" edge="1">
          <mxGeometry relative="1" as="geometry" />
        </mxCell>
        <mxCell id="vJaIqNY0e-Uf2tTBMrfa-107" value="lebar = float(input(&quot;Masukkan Lebar Persegi Panjang (cm) : &quot;))" style="shape=parallelogram;perimeter=parallelogramPerimeter;whiteSpace=wrap;html=1;fixedSize=1;" parent="WIyWlLk6GJQsqaUBKTNV-1" vertex="1">
          <mxGeometry x="37.5" y="1150" width="175" height="60" as="geometry" />
        </mxCell>
        <mxCell id="vJaIqNY0e-Uf2tTBMrfa-109" value="" style="endArrow=classic;html=1;rounded=0;" parent="WIyWlLk6GJQsqaUBKTNV-1" edge="1">
          <mxGeometry width="50" height="50" relative="1" as="geometry">
            <mxPoint x="30" y="1040" as="sourcePoint" />
            <mxPoint x="70" y="1040" as="targetPoint" />
          </mxGeometry>
        </mxCell>
        <mxCell id="vJaIqNY0e-Uf2tTBMrfa-111" value="" style="endArrow=classic;html=1;rounded=0;" parent="WIyWlLk6GJQsqaUBKTNV-1" edge="1">
          <mxGeometry width="50" height="50" relative="1" as="geometry">
            <mxPoint x="20" y="1150" as="sourcePoint" />
            <mxPoint x="60" y="1150" as="targetPoint" />
          </mxGeometry>
        </mxCell>
        <mxCell id="vJaIqNY0e-Uf2tTBMrfa-115" value="" style="edgeStyle=orthogonalEdgeStyle;rounded=0;orthogonalLoop=1;jettySize=auto;html=1;" parent="WIyWlLk6GJQsqaUBKTNV-1" source="vJaIqNY0e-Uf2tTBMrfa-112" target="vJaIqNY0e-Uf2tTBMrfa-114" edge="1">
          <mxGeometry relative="1" as="geometry" />
        </mxCell>
        <mxCell id="vJaIqNY0e-Uf2tTBMrfa-112" value="keliling = 2 * (panjang + lebar)" style="whiteSpace=wrap;html=1;" parent="WIyWlLk6GJQsqaUBKTNV-1" vertex="1">
          <mxGeometry x="65" y="1280" width="120" height="60" as="geometry" />
        </mxCell>
        <mxCell id="vJaIqNY0e-Uf2tTBMrfa-118" value="" style="edgeStyle=orthogonalEdgeStyle;rounded=0;orthogonalLoop=1;jettySize=auto;html=1;" parent="WIyWlLk6GJQsqaUBKTNV-1" source="vJaIqNY0e-Uf2tTBMrfa-114" target="vJaIqNY0e-Uf2tTBMrfa-117" edge="1">
          <mxGeometry relative="1" as="geometry" />
        </mxCell>
        <mxCell id="vJaIqNY0e-Uf2tTBMrfa-114" value="&quot; Keliling Persegi Panjang Adalah : &quot;, float(keliling), &quot;cm&quot;)" style="shape=parallelogram;perimeter=parallelogramPerimeter;whiteSpace=wrap;html=1;fixedSize=1;" parent="WIyWlLk6GJQsqaUBKTNV-1" vertex="1">
          <mxGeometry x="37.5" y="1420" width="175" height="60" as="geometry" />
        </mxCell>
        <mxCell id="vJaIqNY0e-Uf2tTBMrfa-116" value="" style="endArrow=classic;html=1;rounded=0;" parent="WIyWlLk6GJQsqaUBKTNV-1" edge="1">
          <mxGeometry width="50" height="50" relative="1" as="geometry">
            <mxPoint x="190" y="1480" as="sourcePoint" />
            <mxPoint x="250" y="1480" as="targetPoint" />
          </mxGeometry>
        </mxCell>
        <mxCell id="vJaIqNY0e-Uf2tTBMrfa-117" value="&quot;====================&quot;" style="shape=parallelogram;perimeter=parallelogramPerimeter;whiteSpace=wrap;html=1;fixedSize=1;" parent="WIyWlLk6GJQsqaUBKTNV-1" vertex="1">
          <mxGeometry x="33.75" y="1560" width="182.5" height="60" as="geometry" />
        </mxCell>
        <mxCell id="vJaIqNY0e-Uf2tTBMrfa-119" value="" style="endArrow=classic;html=1;rounded=0;" parent="WIyWlLk6GJQsqaUBKTNV-1" edge="1">
          <mxGeometry width="50" height="50" relative="1" as="geometry">
            <mxPoint x="200" y="1620" as="sourcePoint" />
            <mxPoint x="260" y="1620" as="targetPoint" />
          </mxGeometry>
        </mxCell>
        <mxCell id="vJaIqNY0e-Uf2tTBMrfa-120" value="&quot;Error&quot;" style="shape=parallelogram;perimeter=parallelogramPerimeter;whiteSpace=wrap;html=1;fixedSize=1;" parent="WIyWlLk6GJQsqaUBKTNV-1" vertex="1">
          <mxGeometry x="260" y="790" width="120" height="60" as="geometry" />
        </mxCell>
        <mxCell id="vJaIqNY0e-Uf2tTBMrfa-123" value="" style="edgeStyle=orthogonalEdgeStyle;rounded=0;orthogonalLoop=1;jettySize=auto;html=1;" parent="WIyWlLk6GJQsqaUBKTNV-1" source="vJaIqNY0e-Uf2tTBMrfa-96" target="vJaIqNY0e-Uf2tTBMrfa-122" edge="1">
          <mxGeometry relative="1" as="geometry">
            <mxPoint x="165" y="820" as="sourcePoint" />
            <mxPoint x="270" y="820" as="targetPoint" />
          </mxGeometry>
        </mxCell>
        <mxCell id="vJaIqNY0e-Uf2tTBMrfa-122" value="No" style="text;html=1;align=center;verticalAlign=middle;whiteSpace=wrap;rounded=0;" parent="WIyWlLk6GJQsqaUBKTNV-1" vertex="1">
          <mxGeometry x="185" y="805" width="60" height="30" as="geometry" />
        </mxCell>
        <mxCell id="vJaIqNY0e-Uf2tTBMrfa-125" value="" style="endArrow=classic;html=1;rounded=0;" parent="WIyWlLk6GJQsqaUBKTNV-1" edge="1">
          <mxGeometry width="50" height="50" relative="1" as="geometry">
            <mxPoint x="360" y="850" as="sourcePoint" />
            <mxPoint x="430" y="850" as="targetPoint" />
          </mxGeometry>
        </mxCell>
        <mxCell id="vJaIqNY0e-Uf2tTBMrfa-129" style="edgeStyle=orthogonalEdgeStyle;rounded=0;orthogonalLoop=1;jettySize=auto;html=1;exitX=0.5;exitY=1;exitDx=0;exitDy=0;" parent="WIyWlLk6GJQsqaUBKTNV-1" source="vJaIqNY0e-Uf2tTBMrfa-120" target="vJaIqNY0e-Uf2tTBMrfa-120" edge="1">
          <mxGeometry relative="1" as="geometry" />
        </mxCell>
        <mxCell id="vJaIqNY0e-Uf2tTBMrfa-133" value="" style="edgeStyle=orthogonalEdgeStyle;rounded=0;orthogonalLoop=1;jettySize=auto;html=1;" parent="WIyWlLk6GJQsqaUBKTNV-1" source="vJaIqNY0e-Uf2tTBMrfa-135" target="vJaIqNY0e-Uf2tTBMrfa-132" edge="1">
          <mxGeometry relative="1" as="geometry" />
        </mxCell>
        <mxCell id="vJaIqNY0e-Uf2tTBMrfa-153" value="" style="edgeStyle=orthogonalEdgeStyle;rounded=0;orthogonalLoop=1;jettySize=auto;html=1;" parent="WIyWlLk6GJQsqaUBKTNV-1" source="vJaIqNY0e-Uf2tTBMrfa-177" target="vJaIqNY0e-Uf2tTBMrfa-152" edge="1">
          <mxGeometry relative="1" as="geometry" />
        </mxCell>
        <mxCell id="vJaIqNY0e-Uf2tTBMrfa-130" value="kategori == 3.1:" style="rhombus;whiteSpace=wrap;html=1;" parent="WIyWlLk6GJQsqaUBKTNV-1" vertex="1">
          <mxGeometry x="460" y="780" width="80" height="80" as="geometry" />
        </mxCell>
        <mxCell id="vJaIqNY0e-Uf2tTBMrfa-138" value="" style="edgeStyle=orthogonalEdgeStyle;rounded=0;orthogonalLoop=1;jettySize=auto;html=1;" parent="WIyWlLk6GJQsqaUBKTNV-1" source="vJaIqNY0e-Uf2tTBMrfa-132" target="vJaIqNY0e-Uf2tTBMrfa-137" edge="1">
          <mxGeometry relative="1" as="geometry" />
        </mxCell>
        <mxCell id="vJaIqNY0e-Uf2tTBMrfa-132" value="&quot;Rumus Luas Segitiga = 1/2 * alas * tinggi&quot;" style="shape=parallelogram;perimeter=parallelogramPerimeter;whiteSpace=wrap;html=1;fixedSize=1;" parent="WIyWlLk6GJQsqaUBKTNV-1" vertex="1">
          <mxGeometry x="420" y="940" width="160" height="60" as="geometry" />
        </mxCell>
        <mxCell id="vJaIqNY0e-Uf2tTBMrfa-134" value="" style="edgeStyle=orthogonalEdgeStyle;rounded=0;orthogonalLoop=1;jettySize=auto;html=1;" parent="WIyWlLk6GJQsqaUBKTNV-1" source="vJaIqNY0e-Uf2tTBMrfa-130" target="vJaIqNY0e-Uf2tTBMrfa-135" edge="1">
          <mxGeometry relative="1" as="geometry">
            <mxPoint x="500" y="860" as="sourcePoint" />
            <mxPoint x="500" y="940" as="targetPoint" />
          </mxGeometry>
        </mxCell>
        <mxCell id="vJaIqNY0e-Uf2tTBMrfa-135" value="Yes" style="text;html=1;align=center;verticalAlign=middle;whiteSpace=wrap;rounded=0;" parent="WIyWlLk6GJQsqaUBKTNV-1" vertex="1">
          <mxGeometry x="470" y="880" width="60" height="30" as="geometry" />
        </mxCell>
        <mxCell id="vJaIqNY0e-Uf2tTBMrfa-136" value="" style="endArrow=classic;html=1;rounded=0;" parent="WIyWlLk6GJQsqaUBKTNV-1" edge="1">
          <mxGeometry width="50" height="50" relative="1" as="geometry">
            <mxPoint x="560" y="1000" as="sourcePoint" />
            <mxPoint x="590" y="1000" as="targetPoint" />
          </mxGeometry>
        </mxCell>
        <mxCell id="vJaIqNY0e-Uf2tTBMrfa-142" value="" style="edgeStyle=orthogonalEdgeStyle;rounded=0;orthogonalLoop=1;jettySize=auto;html=1;" parent="WIyWlLk6GJQsqaUBKTNV-1" source="vJaIqNY0e-Uf2tTBMrfa-137" target="vJaIqNY0e-Uf2tTBMrfa-141" edge="1">
          <mxGeometry relative="1" as="geometry" />
        </mxCell>
        <mxCell id="vJaIqNY0e-Uf2tTBMrfa-137" value="&lt;br&gt;&lt;span style=&quot;color: rgb(240, 240, 240); font-family: Helvetica; font-size: 12px; font-style: normal; font-variant-ligatures: normal; font-variant-caps: normal; font-weight: 400; letter-spacing: normal; orphans: 2; text-align: center; text-indent: 0px; text-transform: none; widows: 2; word-spacing: 0px; -webkit-text-stroke-width: 0px; white-space: normal; background-color: rgb(27, 29, 30); text-decoration-thickness: initial; text-decoration-style: initial; text-decoration-color: initial; display: inline !important; float: none;&quot;&gt;alas = float(input(&quot;Masukkan Alas Segitiga (cm) : &quot;))&lt;/span&gt;&lt;div&gt;&lt;br&gt;&lt;/div&gt;" style="shape=parallelogram;perimeter=parallelogramPerimeter;whiteSpace=wrap;html=1;fixedSize=1;" parent="WIyWlLk6GJQsqaUBKTNV-1" vertex="1">
          <mxGeometry x="408.75" y="1040" width="182.5" height="60" as="geometry" />
        </mxCell>
        <mxCell id="vJaIqNY0e-Uf2tTBMrfa-140" value="" style="endArrow=classic;html=1;rounded=0;" parent="WIyWlLk6GJQsqaUBKTNV-1" edge="1">
          <mxGeometry width="50" height="50" relative="1" as="geometry">
            <mxPoint x="380" y="1040" as="sourcePoint" />
            <mxPoint x="430" y="1040" as="targetPoint" />
          </mxGeometry>
        </mxCell>
        <mxCell id="vJaIqNY0e-Uf2tTBMrfa-145" value="" style="edgeStyle=orthogonalEdgeStyle;rounded=0;orthogonalLoop=1;jettySize=auto;html=1;" parent="WIyWlLk6GJQsqaUBKTNV-1" source="vJaIqNY0e-Uf2tTBMrfa-141" target="vJaIqNY0e-Uf2tTBMrfa-144" edge="1">
          <mxGeometry relative="1" as="geometry" />
        </mxCell>
        <mxCell id="vJaIqNY0e-Uf2tTBMrfa-141" value="tinggi = float(input(&quot;Masukkan Tinggi Segitiga (cm) : &quot;))" style="shape=parallelogram;perimeter=parallelogramPerimeter;whiteSpace=wrap;html=1;fixedSize=1;" parent="WIyWlLk6GJQsqaUBKTNV-1" vertex="1">
          <mxGeometry x="410" y="1150" width="180" height="60" as="geometry" />
        </mxCell>
        <mxCell id="vJaIqNY0e-Uf2tTBMrfa-143" value="" style="endArrow=classic;html=1;rounded=0;" parent="WIyWlLk6GJQsqaUBKTNV-1" edge="1">
          <mxGeometry width="50" height="50" relative="1" as="geometry">
            <mxPoint x="380" y="1150" as="sourcePoint" />
            <mxPoint x="430" y="1150" as="targetPoint" />
          </mxGeometry>
        </mxCell>
        <mxCell id="vJaIqNY0e-Uf2tTBMrfa-147" value="" style="edgeStyle=orthogonalEdgeStyle;rounded=0;orthogonalLoop=1;jettySize=auto;html=1;" parent="WIyWlLk6GJQsqaUBKTNV-1" source="vJaIqNY0e-Uf2tTBMrfa-144" target="vJaIqNY0e-Uf2tTBMrfa-146" edge="1">
          <mxGeometry relative="1" as="geometry" />
        </mxCell>
        <mxCell id="vJaIqNY0e-Uf2tTBMrfa-144" value="&lt;br&gt;&lt;span style=&quot;color: rgb(240, 240, 240); font-family: Helvetica; font-size: 12px; font-style: normal; font-variant-ligatures: normal; font-variant-caps: normal; font-weight: 400; letter-spacing: normal; orphans: 2; text-align: center; text-indent: 0px; text-transform: none; widows: 2; word-spacing: 0px; -webkit-text-stroke-width: 0px; white-space: normal; background-color: rgb(27, 29, 30); text-decoration-thickness: initial; text-decoration-style: initial; text-decoration-color: initial; display: inline !important; float: none;&quot;&gt;luas = 1/2 * alas * tinggi&lt;/span&gt;&lt;div&gt;&lt;br/&gt;&lt;/div&gt;" style="whiteSpace=wrap;html=1;" parent="WIyWlLk6GJQsqaUBKTNV-1" vertex="1">
          <mxGeometry x="440" y="1280" width="120" height="60" as="geometry" />
        </mxCell>
        <mxCell id="vJaIqNY0e-Uf2tTBMrfa-150" value="" style="edgeStyle=orthogonalEdgeStyle;rounded=0;orthogonalLoop=1;jettySize=auto;html=1;" parent="WIyWlLk6GJQsqaUBKTNV-1" source="vJaIqNY0e-Uf2tTBMrfa-146" target="vJaIqNY0e-Uf2tTBMrfa-149" edge="1">
          <mxGeometry relative="1" as="geometry" />
        </mxCell>
        <mxCell id="vJaIqNY0e-Uf2tTBMrfa-146" value="&quot; Luas Segitiga Adalah : &quot;, float(luas), &quot;cm&quot;)" style="shape=parallelogram;perimeter=parallelogramPerimeter;whiteSpace=wrap;html=1;fixedSize=1;" parent="WIyWlLk6GJQsqaUBKTNV-1" vertex="1">
          <mxGeometry x="415" y="1420" width="170" height="60" as="geometry" />
        </mxCell>
        <mxCell id="vJaIqNY0e-Uf2tTBMrfa-148" value="" style="endArrow=classic;html=1;rounded=0;" parent="WIyWlLk6GJQsqaUBKTNV-1" edge="1">
          <mxGeometry width="50" height="50" relative="1" as="geometry">
            <mxPoint x="560" y="1480" as="sourcePoint" />
            <mxPoint x="610" y="1480" as="targetPoint" />
          </mxGeometry>
        </mxCell>
        <mxCell id="vJaIqNY0e-Uf2tTBMrfa-149" value="&quot;==================&quot;" style="shape=parallelogram;perimeter=parallelogramPerimeter;whiteSpace=wrap;html=1;fixedSize=1;" parent="WIyWlLk6GJQsqaUBKTNV-1" vertex="1">
          <mxGeometry x="410" y="1560" width="180" height="60" as="geometry" />
        </mxCell>
        <mxCell id="vJaIqNY0e-Uf2tTBMrfa-151" value="" style="endArrow=classic;html=1;rounded=0;" parent="WIyWlLk6GJQsqaUBKTNV-1" edge="1">
          <mxGeometry width="50" height="50" relative="1" as="geometry">
            <mxPoint x="570" y="1620" as="sourcePoint" />
            <mxPoint x="610" y="1620" as="targetPoint" />
          </mxGeometry>
        </mxCell>
        <mxCell id="vJaIqNY0e-Uf2tTBMrfa-155" value="" style="edgeStyle=orthogonalEdgeStyle;rounded=0;orthogonalLoop=1;jettySize=auto;html=1;" parent="WIyWlLk6GJQsqaUBKTNV-1" source="vJaIqNY0e-Uf2tTBMrfa-188" target="vJaIqNY0e-Uf2tTBMrfa-154" edge="1">
          <mxGeometry relative="1" as="geometry" />
        </mxCell>
        <mxCell id="vJaIqNY0e-Uf2tTBMrfa-176" value="" style="edgeStyle=orthogonalEdgeStyle;rounded=0;orthogonalLoop=1;jettySize=auto;html=1;" parent="WIyWlLk6GJQsqaUBKTNV-1" source="vJaIqNY0e-Uf2tTBMrfa-182" target="vJaIqNY0e-Uf2tTBMrfa-175" edge="1">
          <mxGeometry relative="1" as="geometry" />
        </mxCell>
        <mxCell id="vJaIqNY0e-Uf2tTBMrfa-152" value="kategori == 3.2:" style="rhombus;whiteSpace=wrap;html=1;" parent="WIyWlLk6GJQsqaUBKTNV-1" vertex="1">
          <mxGeometry x="660" y="780" width="80" height="80" as="geometry" />
        </mxCell>
        <mxCell id="vJaIqNY0e-Uf2tTBMrfa-157" value="" style="edgeStyle=orthogonalEdgeStyle;rounded=0;orthogonalLoop=1;jettySize=auto;html=1;" parent="WIyWlLk6GJQsqaUBKTNV-1" source="vJaIqNY0e-Uf2tTBMrfa-154" target="vJaIqNY0e-Uf2tTBMrfa-156" edge="1">
          <mxGeometry relative="1" as="geometry" />
        </mxCell>
        <mxCell id="vJaIqNY0e-Uf2tTBMrfa-154" value="&quot;Rumus Keliling Segitiga = Sisi a + Sisi b + Sisi c&quot;" style="shape=parallelogram;perimeter=parallelogramPerimeter;whiteSpace=wrap;html=1;fixedSize=1;" parent="WIyWlLk6GJQsqaUBKTNV-1" vertex="1">
          <mxGeometry x="625" y="940" width="150" height="60" as="geometry" />
        </mxCell>
        <mxCell id="vJaIqNY0e-Uf2tTBMrfa-160" value="" style="edgeStyle=orthogonalEdgeStyle;rounded=0;orthogonalLoop=1;jettySize=auto;html=1;" parent="WIyWlLk6GJQsqaUBKTNV-1" source="vJaIqNY0e-Uf2tTBMrfa-156" target="vJaIqNY0e-Uf2tTBMrfa-159" edge="1">
          <mxGeometry relative="1" as="geometry" />
        </mxCell>
        <mxCell id="vJaIqNY0e-Uf2tTBMrfa-156" value="&lt;br&gt;a = float(input(&quot;Masukkan Sisi A Segitiga (cm) : &quot;))&lt;div&gt;&lt;br&gt;&lt;/div&gt;" style="shape=parallelogram;perimeter=parallelogramPerimeter;whiteSpace=wrap;html=1;fixedSize=1;" parent="WIyWlLk6GJQsqaUBKTNV-1" vertex="1">
          <mxGeometry x="623.75" y="1040" width="152.5" height="60" as="geometry" />
        </mxCell>
        <mxCell id="vJaIqNY0e-Uf2tTBMrfa-158" value="" style="endArrow=classic;html=1;rounded=0;" parent="WIyWlLk6GJQsqaUBKTNV-1" edge="1">
          <mxGeometry width="50" height="50" relative="1" as="geometry">
            <mxPoint x="610" y="1040" as="sourcePoint" />
            <mxPoint x="650" y="1040" as="targetPoint" />
          </mxGeometry>
        </mxCell>
        <mxCell id="vJaIqNY0e-Uf2tTBMrfa-162" value="" style="edgeStyle=orthogonalEdgeStyle;rounded=0;orthogonalLoop=1;jettySize=auto;html=1;" parent="WIyWlLk6GJQsqaUBKTNV-1" source="vJaIqNY0e-Uf2tTBMrfa-159" target="vJaIqNY0e-Uf2tTBMrfa-161" edge="1">
          <mxGeometry relative="1" as="geometry" />
        </mxCell>
        <mxCell id="vJaIqNY0e-Uf2tTBMrfa-159" value="&lt;br&gt;b = float(input(&quot;Masukkan Sisi B Segitiga (cm) : &quot;))&lt;div&gt;&lt;br&gt;&lt;/div&gt;" style="shape=parallelogram;perimeter=parallelogramPerimeter;whiteSpace=wrap;html=1;fixedSize=1;" parent="WIyWlLk6GJQsqaUBKTNV-1" vertex="1">
          <mxGeometry x="625" y="1150" width="150" height="60" as="geometry" />
        </mxCell>
        <mxCell id="vJaIqNY0e-Uf2tTBMrfa-168" value="" style="edgeStyle=orthogonalEdgeStyle;rounded=0;orthogonalLoop=1;jettySize=auto;html=1;" parent="WIyWlLk6GJQsqaUBKTNV-1" source="vJaIqNY0e-Uf2tTBMrfa-161" target="vJaIqNY0e-Uf2tTBMrfa-167" edge="1">
          <mxGeometry relative="1" as="geometry" />
        </mxCell>
        <mxCell id="vJaIqNY0e-Uf2tTBMrfa-161" value="&lt;br&gt;b = float(input(&quot;Masukkan Sisi B Segitiga (cm) : &quot;))&lt;div&gt;&lt;br&gt;&lt;/div&gt;" style="shape=parallelogram;perimeter=parallelogramPerimeter;whiteSpace=wrap;html=1;fixedSize=1;" parent="WIyWlLk6GJQsqaUBKTNV-1" vertex="1">
          <mxGeometry x="625" y="1280" width="150" height="60" as="geometry" />
        </mxCell>
        <mxCell id="vJaIqNY0e-Uf2tTBMrfa-163" value="" style="endArrow=classic;html=1;rounded=0;" parent="WIyWlLk6GJQsqaUBKTNV-1" edge="1">
          <mxGeometry width="50" height="50" relative="1" as="geometry">
            <mxPoint x="610" y="1150" as="sourcePoint" />
            <mxPoint x="650" y="1150" as="targetPoint" />
          </mxGeometry>
        </mxCell>
        <mxCell id="vJaIqNY0e-Uf2tTBMrfa-164" value="" style="endArrow=classic;html=1;rounded=0;" parent="WIyWlLk6GJQsqaUBKTNV-1" edge="1">
          <mxGeometry width="50" height="50" relative="1" as="geometry">
            <mxPoint x="600" y="1280" as="sourcePoint" />
            <mxPoint x="650" y="1280" as="targetPoint" />
          </mxGeometry>
        </mxCell>
        <mxCell id="vJaIqNY0e-Uf2tTBMrfa-170" value="" style="edgeStyle=orthogonalEdgeStyle;rounded=0;orthogonalLoop=1;jettySize=auto;html=1;" parent="WIyWlLk6GJQsqaUBKTNV-1" source="vJaIqNY0e-Uf2tTBMrfa-167" target="vJaIqNY0e-Uf2tTBMrfa-169" edge="1">
          <mxGeometry relative="1" as="geometry" />
        </mxCell>
        <mxCell id="vJaIqNY0e-Uf2tTBMrfa-167" value="keliling = a + b + c" style="whiteSpace=wrap;html=1;" parent="WIyWlLk6GJQsqaUBKTNV-1" vertex="1">
          <mxGeometry x="640" y="1420" width="120" height="60" as="geometry" />
        </mxCell>
        <mxCell id="vJaIqNY0e-Uf2tTBMrfa-172" value="" style="edgeStyle=orthogonalEdgeStyle;rounded=0;orthogonalLoop=1;jettySize=auto;html=1;" parent="WIyWlLk6GJQsqaUBKTNV-1" source="vJaIqNY0e-Uf2tTBMrfa-169" target="vJaIqNY0e-Uf2tTBMrfa-171" edge="1">
          <mxGeometry relative="1" as="geometry" />
        </mxCell>
        <mxCell id="vJaIqNY0e-Uf2tTBMrfa-169" value="&quot; Keliling Segitiga Adalah : &quot;, float(keliling), &quot;cm&quot;)" style="shape=parallelogram;perimeter=parallelogramPerimeter;whiteSpace=wrap;html=1;fixedSize=1;" parent="WIyWlLk6GJQsqaUBKTNV-1" vertex="1">
          <mxGeometry x="630" y="1560" width="138.75" height="60" as="geometry" />
        </mxCell>
        <mxCell id="vJaIqNY0e-Uf2tTBMrfa-171" value="&quot;=====================&quot;" style="shape=parallelogram;perimeter=parallelogramPerimeter;whiteSpace=wrap;html=1;fixedSize=1;" parent="WIyWlLk6GJQsqaUBKTNV-1" vertex="1">
          <mxGeometry x="605.48" y="1700" width="187.8" height="60" as="geometry" />
        </mxCell>
        <mxCell id="vJaIqNY0e-Uf2tTBMrfa-173" value="" style="endArrow=classic;html=1;rounded=0;" parent="WIyWlLk6GJQsqaUBKTNV-1" edge="1">
          <mxGeometry width="50" height="50" relative="1" as="geometry">
            <mxPoint x="750" y="1620" as="sourcePoint" />
            <mxPoint x="800" y="1620" as="targetPoint" />
          </mxGeometry>
        </mxCell>
        <mxCell id="vJaIqNY0e-Uf2tTBMrfa-174" value="" style="endArrow=classic;html=1;rounded=0;" parent="WIyWlLk6GJQsqaUBKTNV-1" edge="1">
          <mxGeometry width="50" height="50" relative="1" as="geometry">
            <mxPoint x="770" y="1760" as="sourcePoint" />
            <mxPoint x="830" y="1760" as="targetPoint" />
          </mxGeometry>
        </mxCell>
        <mxCell id="vJaIqNY0e-Uf2tTBMrfa-175" value="&quot;Error&quot;" style="shape=parallelogram;perimeter=parallelogramPerimeter;whiteSpace=wrap;html=1;fixedSize=1;" parent="WIyWlLk6GJQsqaUBKTNV-1" vertex="1">
          <mxGeometry x="840" y="790" width="120" height="60" as="geometry" />
        </mxCell>
        <mxCell id="vJaIqNY0e-Uf2tTBMrfa-181" value="" style="edgeStyle=orthogonalEdgeStyle;rounded=0;orthogonalLoop=1;jettySize=auto;html=1;" parent="WIyWlLk6GJQsqaUBKTNV-1" source="vJaIqNY0e-Uf2tTBMrfa-130" target="vJaIqNY0e-Uf2tTBMrfa-177" edge="1">
          <mxGeometry relative="1" as="geometry">
            <mxPoint x="540" y="820" as="sourcePoint" />
            <mxPoint x="660" y="820" as="targetPoint" />
          </mxGeometry>
        </mxCell>
        <mxCell id="vJaIqNY0e-Uf2tTBMrfa-177" value="No" style="text;html=1;align=center;verticalAlign=middle;whiteSpace=wrap;rounded=0;" parent="WIyWlLk6GJQsqaUBKTNV-1" vertex="1">
          <mxGeometry x="566.25" y="805" width="60" height="30" as="geometry" />
        </mxCell>
        <mxCell id="vJaIqNY0e-Uf2tTBMrfa-183" value="" style="edgeStyle=orthogonalEdgeStyle;rounded=0;orthogonalLoop=1;jettySize=auto;html=1;" parent="WIyWlLk6GJQsqaUBKTNV-1" source="vJaIqNY0e-Uf2tTBMrfa-152" target="vJaIqNY0e-Uf2tTBMrfa-182" edge="1">
          <mxGeometry relative="1" as="geometry">
            <mxPoint x="740" y="820" as="sourcePoint" />
            <mxPoint x="840" y="820" as="targetPoint" />
          </mxGeometry>
        </mxCell>
        <mxCell id="vJaIqNY0e-Uf2tTBMrfa-182" value="No" style="text;html=1;align=center;verticalAlign=middle;whiteSpace=wrap;rounded=0;" parent="WIyWlLk6GJQsqaUBKTNV-1" vertex="1">
          <mxGeometry x="760" y="805" width="60" height="30" as="geometry" />
        </mxCell>
        <mxCell id="vJaIqNY0e-Uf2tTBMrfa-187" value="" style="edgeStyle=orthogonalEdgeStyle;rounded=0;orthogonalLoop=1;jettySize=auto;html=1;" parent="WIyWlLk6GJQsqaUBKTNV-1" source="vJaIqNY0e-Uf2tTBMrfa-190" target="vJaIqNY0e-Uf2tTBMrfa-186" edge="1">
          <mxGeometry relative="1" as="geometry" />
        </mxCell>
        <mxCell id="vJaIqNY0e-Uf2tTBMrfa-209" value="" style="edgeStyle=orthogonalEdgeStyle;rounded=0;orthogonalLoop=1;jettySize=auto;html=1;" parent="WIyWlLk6GJQsqaUBKTNV-1" source="vJaIqNY0e-Uf2tTBMrfa-212" target="vJaIqNY0e-Uf2tTBMrfa-208" edge="1">
          <mxGeometry relative="1" as="geometry" />
        </mxCell>
        <mxCell id="vJaIqNY0e-Uf2tTBMrfa-184" value="kategori == 4.1:" style="rhombus;whiteSpace=wrap;html=1;" parent="WIyWlLk6GJQsqaUBKTNV-1" vertex="1">
          <mxGeometry x="1010" y="780" width="80" height="80" as="geometry" />
        </mxCell>
        <mxCell id="vJaIqNY0e-Uf2tTBMrfa-195" value="" style="edgeStyle=orthogonalEdgeStyle;rounded=0;orthogonalLoop=1;jettySize=auto;html=1;" parent="WIyWlLk6GJQsqaUBKTNV-1" source="vJaIqNY0e-Uf2tTBMrfa-186" target="vJaIqNY0e-Uf2tTBMrfa-194" edge="1">
          <mxGeometry relative="1" as="geometry" />
        </mxCell>
        <mxCell id="vJaIqNY0e-Uf2tTBMrfa-186" value="&quot;Rumus Luas Jajar Genjang = alas * tinggi&quot;" style="shape=parallelogram;perimeter=parallelogramPerimeter;whiteSpace=wrap;html=1;fixedSize=1;" parent="WIyWlLk6GJQsqaUBKTNV-1" vertex="1">
          <mxGeometry x="975" y="940" width="150" height="60" as="geometry" />
        </mxCell>
        <mxCell id="vJaIqNY0e-Uf2tTBMrfa-189" value="" style="edgeStyle=orthogonalEdgeStyle;rounded=0;orthogonalLoop=1;jettySize=auto;html=1;" parent="WIyWlLk6GJQsqaUBKTNV-1" source="vJaIqNY0e-Uf2tTBMrfa-152" target="vJaIqNY0e-Uf2tTBMrfa-188" edge="1">
          <mxGeometry relative="1" as="geometry">
            <mxPoint x="700" y="860" as="sourcePoint" />
            <mxPoint x="700" y="940" as="targetPoint" />
          </mxGeometry>
        </mxCell>
        <mxCell id="vJaIqNY0e-Uf2tTBMrfa-188" value="Yes" style="text;html=1;align=center;verticalAlign=middle;whiteSpace=wrap;rounded=0;" parent="WIyWlLk6GJQsqaUBKTNV-1" vertex="1">
          <mxGeometry x="670" y="880" width="60" height="30" as="geometry" />
        </mxCell>
        <mxCell id="vJaIqNY0e-Uf2tTBMrfa-191" value="" style="edgeStyle=orthogonalEdgeStyle;rounded=0;orthogonalLoop=1;jettySize=auto;html=1;" parent="WIyWlLk6GJQsqaUBKTNV-1" source="vJaIqNY0e-Uf2tTBMrfa-184" target="vJaIqNY0e-Uf2tTBMrfa-190" edge="1">
          <mxGeometry relative="1" as="geometry">
            <mxPoint x="1050" y="860" as="sourcePoint" />
            <mxPoint x="1050" y="940" as="targetPoint" />
          </mxGeometry>
        </mxCell>
        <mxCell id="vJaIqNY0e-Uf2tTBMrfa-190" value="Yes" style="text;html=1;align=center;verticalAlign=middle;whiteSpace=wrap;rounded=0;" parent="WIyWlLk6GJQsqaUBKTNV-1" vertex="1">
          <mxGeometry x="1020" y="880" width="60" height="30" as="geometry" />
        </mxCell>
        <mxCell id="vJaIqNY0e-Uf2tTBMrfa-192" value="" style="endArrow=classic;html=1;rounded=0;" parent="WIyWlLk6GJQsqaUBKTNV-1" edge="1">
          <mxGeometry width="50" height="50" relative="1" as="geometry">
            <mxPoint x="750" y="1000" as="sourcePoint" />
            <mxPoint x="800" y="1000" as="targetPoint" />
          </mxGeometry>
        </mxCell>
        <mxCell id="vJaIqNY0e-Uf2tTBMrfa-193" value="" style="endArrow=classic;html=1;rounded=0;" parent="WIyWlLk6GJQsqaUBKTNV-1" edge="1">
          <mxGeometry width="50" height="50" relative="1" as="geometry">
            <mxPoint x="1100" y="1000" as="sourcePoint" />
            <mxPoint x="1150" y="1000" as="targetPoint" />
          </mxGeometry>
        </mxCell>
        <mxCell id="vJaIqNY0e-Uf2tTBMrfa-197" value="" style="edgeStyle=orthogonalEdgeStyle;rounded=0;orthogonalLoop=1;jettySize=auto;html=1;" parent="WIyWlLk6GJQsqaUBKTNV-1" source="vJaIqNY0e-Uf2tTBMrfa-194" target="vJaIqNY0e-Uf2tTBMrfa-196" edge="1">
          <mxGeometry relative="1" as="geometry" />
        </mxCell>
        <mxCell id="vJaIqNY0e-Uf2tTBMrfa-194" value="&lt;br&gt;alas = float(input(&quot;Masukkan Alas Jajar Genjang (cm) : &quot;))&lt;div&gt;&lt;br&gt;&lt;/div&gt;" style="shape=parallelogram;perimeter=parallelogramPerimeter;whiteSpace=wrap;html=1;fixedSize=1;" parent="WIyWlLk6GJQsqaUBKTNV-1" vertex="1">
          <mxGeometry x="975" y="1040" width="150" height="60" as="geometry" />
        </mxCell>
        <mxCell id="vJaIqNY0e-Uf2tTBMrfa-201" value="" style="edgeStyle=orthogonalEdgeStyle;rounded=0;orthogonalLoop=1;jettySize=auto;html=1;" parent="WIyWlLk6GJQsqaUBKTNV-1" source="vJaIqNY0e-Uf2tTBMrfa-196" target="vJaIqNY0e-Uf2tTBMrfa-200" edge="1">
          <mxGeometry relative="1" as="geometry" />
        </mxCell>
        <mxCell id="vJaIqNY0e-Uf2tTBMrfa-196" value="&lt;br&gt;tinggi = float(input(&quot;Masukkan Tinggi Jajar Genjang (cm) : &quot;))&lt;div&gt;&lt;br&gt;&lt;/div&gt;" style="shape=parallelogram;perimeter=parallelogramPerimeter;whiteSpace=wrap;html=1;fixedSize=1;" parent="WIyWlLk6GJQsqaUBKTNV-1" vertex="1">
          <mxGeometry x="975" y="1150" width="150" height="60" as="geometry" />
        </mxCell>
        <mxCell id="vJaIqNY0e-Uf2tTBMrfa-198" value="" style="endArrow=classic;html=1;rounded=0;" parent="WIyWlLk6GJQsqaUBKTNV-1" edge="1">
          <mxGeometry width="50" height="50" relative="1" as="geometry">
            <mxPoint x="950" y="1040" as="sourcePoint" />
            <mxPoint x="1000" y="1040" as="targetPoint" />
          </mxGeometry>
        </mxCell>
        <mxCell id="vJaIqNY0e-Uf2tTBMrfa-199" value="" style="endArrow=classic;html=1;rounded=0;" parent="WIyWlLk6GJQsqaUBKTNV-1" edge="1">
          <mxGeometry width="50" height="50" relative="1" as="geometry">
            <mxPoint x="950" y="1150" as="sourcePoint" />
            <mxPoint x="1000" y="1150" as="targetPoint" />
          </mxGeometry>
        </mxCell>
        <mxCell id="vJaIqNY0e-Uf2tTBMrfa-203" value="" style="edgeStyle=orthogonalEdgeStyle;rounded=0;orthogonalLoop=1;jettySize=auto;html=1;" parent="WIyWlLk6GJQsqaUBKTNV-1" source="vJaIqNY0e-Uf2tTBMrfa-200" target="vJaIqNY0e-Uf2tTBMrfa-202" edge="1">
          <mxGeometry relative="1" as="geometry" />
        </mxCell>
        <mxCell id="vJaIqNY0e-Uf2tTBMrfa-200" value="&lt;br&gt;luas = alas * tinggi&lt;div&gt;&lt;br&gt;&lt;/div&gt;" style="whiteSpace=wrap;html=1;" parent="WIyWlLk6GJQsqaUBKTNV-1" vertex="1">
          <mxGeometry x="990" y="1280" width="120" height="60" as="geometry" />
        </mxCell>
        <mxCell id="vJaIqNY0e-Uf2tTBMrfa-206" value="" style="edgeStyle=orthogonalEdgeStyle;rounded=0;orthogonalLoop=1;jettySize=auto;html=1;" parent="WIyWlLk6GJQsqaUBKTNV-1" source="vJaIqNY0e-Uf2tTBMrfa-202" target="vJaIqNY0e-Uf2tTBMrfa-205" edge="1">
          <mxGeometry relative="1" as="geometry" />
        </mxCell>
        <mxCell id="vJaIqNY0e-Uf2tTBMrfa-202" value="&quot; Luas Jajar Genjang Adalah : &quot;, float(luas), &quot;cm&quot;)" style="shape=parallelogram;perimeter=parallelogramPerimeter;whiteSpace=wrap;html=1;fixedSize=1;" parent="WIyWlLk6GJQsqaUBKTNV-1" vertex="1">
          <mxGeometry x="975" y="1420" width="150" height="60" as="geometry" />
        </mxCell>
        <mxCell id="vJaIqNY0e-Uf2tTBMrfa-204" value="" style="endArrow=classic;html=1;rounded=0;" parent="WIyWlLk6GJQsqaUBKTNV-1" edge="1">
          <mxGeometry width="50" height="50" relative="1" as="geometry">
            <mxPoint x="1100" y="1480" as="sourcePoint" />
            <mxPoint x="1150" y="1480" as="targetPoint" />
          </mxGeometry>
        </mxCell>
        <mxCell id="vJaIqNY0e-Uf2tTBMrfa-205" value="&quot;========================&quot;" style="shape=parallelogram;perimeter=parallelogramPerimeter;whiteSpace=wrap;html=1;fixedSize=1;" parent="WIyWlLk6GJQsqaUBKTNV-1" vertex="1">
          <mxGeometry x="942.5" y="1560" width="215" height="60" as="geometry" />
        </mxCell>
        <mxCell id="vJaIqNY0e-Uf2tTBMrfa-207" value="" style="endArrow=classic;html=1;rounded=0;" parent="WIyWlLk6GJQsqaUBKTNV-1" edge="1">
          <mxGeometry width="50" height="50" relative="1" as="geometry">
            <mxPoint x="1130" y="1620" as="sourcePoint" />
            <mxPoint x="1170" y="1620" as="targetPoint" />
          </mxGeometry>
        </mxCell>
        <mxCell id="vJaIqNY0e-Uf2tTBMrfa-211" value="" style="edgeStyle=orthogonalEdgeStyle;rounded=0;orthogonalLoop=1;jettySize=auto;html=1;" parent="WIyWlLk6GJQsqaUBKTNV-1" source="vJaIqNY0e-Uf2tTBMrfa-208" target="vJaIqNY0e-Uf2tTBMrfa-210" edge="1">
          <mxGeometry relative="1" as="geometry" />
        </mxCell>
        <mxCell id="vJaIqNY0e-Uf2tTBMrfa-208" value="kategori == 4.2:" style="rhombus;whiteSpace=wrap;html=1;" parent="WIyWlLk6GJQsqaUBKTNV-1" vertex="1">
          <mxGeometry x="1220" y="780" width="80" height="80" as="geometry" />
        </mxCell>
        <mxCell id="vJaIqNY0e-Uf2tTBMrfa-216" value="" style="edgeStyle=orthogonalEdgeStyle;rounded=0;orthogonalLoop=1;jettySize=auto;html=1;" parent="WIyWlLk6GJQsqaUBKTNV-1" source="vJaIqNY0e-Uf2tTBMrfa-210" target="vJaIqNY0e-Uf2tTBMrfa-215" edge="1">
          <mxGeometry relative="1" as="geometry" />
        </mxCell>
        <mxCell id="vJaIqNY0e-Uf2tTBMrfa-210" value="&quot;Rumus Keliling Jajar Genjang = 2 * (alas + sisi_miring)&quot;" style="shape=parallelogram;perimeter=parallelogramPerimeter;whiteSpace=wrap;html=1;fixedSize=1;" parent="WIyWlLk6GJQsqaUBKTNV-1" vertex="1">
          <mxGeometry x="1180" y="940" width="160" height="60" as="geometry" />
        </mxCell>
        <mxCell id="vJaIqNY0e-Uf2tTBMrfa-213" value="" style="edgeStyle=orthogonalEdgeStyle;rounded=0;orthogonalLoop=1;jettySize=auto;html=1;" parent="WIyWlLk6GJQsqaUBKTNV-1" source="vJaIqNY0e-Uf2tTBMrfa-184" target="vJaIqNY0e-Uf2tTBMrfa-212" edge="1">
          <mxGeometry relative="1" as="geometry">
            <mxPoint x="1090" y="820" as="sourcePoint" />
            <mxPoint x="1220" y="820" as="targetPoint" />
          </mxGeometry>
        </mxCell>
        <mxCell id="vJaIqNY0e-Uf2tTBMrfa-212" value="No" style="text;html=1;align=center;verticalAlign=middle;whiteSpace=wrap;rounded=0;" parent="WIyWlLk6GJQsqaUBKTNV-1" vertex="1">
          <mxGeometry x="1125" y="805" width="60" height="30" as="geometry" />
        </mxCell>
        <mxCell id="vJaIqNY0e-Uf2tTBMrfa-214" value="" style="endArrow=classic;html=1;rounded=0;" parent="WIyWlLk6GJQsqaUBKTNV-1" edge="1">
          <mxGeometry width="50" height="50" relative="1" as="geometry">
            <mxPoint x="1320" y="1000" as="sourcePoint" />
            <mxPoint x="1380" y="1000" as="targetPoint" />
          </mxGeometry>
        </mxCell>
        <mxCell id="vJaIqNY0e-Uf2tTBMrfa-219" value="" style="edgeStyle=orthogonalEdgeStyle;rounded=0;orthogonalLoop=1;jettySize=auto;html=1;" parent="WIyWlLk6GJQsqaUBKTNV-1" source="vJaIqNY0e-Uf2tTBMrfa-215" target="vJaIqNY0e-Uf2tTBMrfa-218" edge="1">
          <mxGeometry relative="1" as="geometry" />
        </mxCell>
        <mxCell id="vJaIqNY0e-Uf2tTBMrfa-215" value="&lt;br&gt;alas = float(input(&quot;Masukkan Alas Jajar Genjang (cm) : &quot;))&lt;div&gt;&lt;br&gt;&lt;/div&gt;" style="shape=parallelogram;perimeter=parallelogramPerimeter;whiteSpace=wrap;html=1;fixedSize=1;" parent="WIyWlLk6GJQsqaUBKTNV-1" vertex="1">
          <mxGeometry x="1180" y="1040" width="160" height="60" as="geometry" />
        </mxCell>
        <mxCell id="vJaIqNY0e-Uf2tTBMrfa-217" value="" style="endArrow=classic;html=1;rounded=0;" parent="WIyWlLk6GJQsqaUBKTNV-1" edge="1">
          <mxGeometry width="50" height="50" relative="1" as="geometry">
            <mxPoint x="1150" y="1040" as="sourcePoint" />
            <mxPoint x="1200" y="1040" as="targetPoint" />
          </mxGeometry>
        </mxCell>
        <mxCell id="vJaIqNY0e-Uf2tTBMrfa-224" value="" style="edgeStyle=orthogonalEdgeStyle;rounded=0;orthogonalLoop=1;jettySize=auto;html=1;" parent="WIyWlLk6GJQsqaUBKTNV-1" source="vJaIqNY0e-Uf2tTBMrfa-218" target="vJaIqNY0e-Uf2tTBMrfa-223" edge="1">
          <mxGeometry relative="1" as="geometry" />
        </mxCell>
        <mxCell id="vJaIqNY0e-Uf2tTBMrfa-218" value="&lt;br&gt;sisi_miring = float(input(&quot;Masukkan Sisi Miring Jajar Genjang (cm) : &quot;))&lt;div&gt;&lt;br&gt;&lt;/div&gt;" style="shape=parallelogram;perimeter=parallelogramPerimeter;whiteSpace=wrap;html=1;fixedSize=1;" parent="WIyWlLk6GJQsqaUBKTNV-1" vertex="1">
          <mxGeometry x="1175" y="1150" width="170" height="60" as="geometry" />
        </mxCell>
        <mxCell id="vJaIqNY0e-Uf2tTBMrfa-220" value="" style="endArrow=classic;html=1;rounded=0;" parent="WIyWlLk6GJQsqaUBKTNV-1" edge="1">
          <mxGeometry width="50" height="50" relative="1" as="geometry">
            <mxPoint x="1140" y="1150" as="sourcePoint" />
            <mxPoint x="1200" y="1150" as="targetPoint" />
          </mxGeometry>
        </mxCell>
        <mxCell id="vJaIqNY0e-Uf2tTBMrfa-226" value="" style="edgeStyle=orthogonalEdgeStyle;rounded=0;orthogonalLoop=1;jettySize=auto;html=1;" parent="WIyWlLk6GJQsqaUBKTNV-1" source="vJaIqNY0e-Uf2tTBMrfa-223" target="vJaIqNY0e-Uf2tTBMrfa-225" edge="1">
          <mxGeometry relative="1" as="geometry" />
        </mxCell>
        <mxCell id="vJaIqNY0e-Uf2tTBMrfa-223" value="keliling = 2 * (alas + sisi_miring)" style="whiteSpace=wrap;html=1;" parent="WIyWlLk6GJQsqaUBKTNV-1" vertex="1">
          <mxGeometry x="1200" y="1280" width="120" height="60" as="geometry" />
        </mxCell>
        <mxCell id="vJaIqNY0e-Uf2tTBMrfa-230" value="" style="edgeStyle=orthogonalEdgeStyle;rounded=0;orthogonalLoop=1;jettySize=auto;html=1;" parent="WIyWlLk6GJQsqaUBKTNV-1" source="vJaIqNY0e-Uf2tTBMrfa-225" target="vJaIqNY0e-Uf2tTBMrfa-229" edge="1">
          <mxGeometry relative="1" as="geometry" />
        </mxCell>
        <mxCell id="vJaIqNY0e-Uf2tTBMrfa-225" value="&quot; Keliling Jajar Genjang Adalah : &quot;, float(keliling), &quot;cm&quot;)" style="shape=parallelogram;perimeter=parallelogramPerimeter;whiteSpace=wrap;html=1;fixedSize=1;" parent="WIyWlLk6GJQsqaUBKTNV-1" vertex="1">
          <mxGeometry x="1175" y="1420" width="170" height="60" as="geometry" />
        </mxCell>
        <mxCell id="vJaIqNY0e-Uf2tTBMrfa-228" value="" style="endArrow=classic;html=1;rounded=0;" parent="WIyWlLk6GJQsqaUBKTNV-1" edge="1">
          <mxGeometry width="50" height="50" relative="1" as="geometry">
            <mxPoint x="1320" y="1480" as="sourcePoint" />
            <mxPoint x="1380" y="1480" as="targetPoint" />
          </mxGeometry>
        </mxCell>
        <mxCell id="vJaIqNY0e-Uf2tTBMrfa-229" value="&quot;==================&quot;" style="shape=parallelogram;perimeter=parallelogramPerimeter;whiteSpace=wrap;html=1;fixedSize=1;" parent="WIyWlLk6GJQsqaUBKTNV-1" vertex="1">
          <mxGeometry x="1175" y="1560" width="170" height="60" as="geometry" />
        </mxCell>
        <mxCell id="vJaIqNY0e-Uf2tTBMrfa-231" value="" style="endArrow=classic;html=1;rounded=0;" parent="WIyWlLk6GJQsqaUBKTNV-1" edge="1">
          <mxGeometry width="50" height="50" relative="1" as="geometry">
            <mxPoint x="1320" y="1620" as="sourcePoint" />
            <mxPoint x="1370" y="1620" as="targetPoint" />
          </mxGeometry>
        </mxCell>
        <mxCell id="vJaIqNY0e-Uf2tTBMrfa-234" value="&quot;Error&quot;" style="shape=parallelogram;perimeter=parallelogramPerimeter;whiteSpace=wrap;html=1;fixedSize=1;" parent="WIyWlLk6GJQsqaUBKTNV-1" vertex="1">
          <mxGeometry x="1560" y="500" width="120" height="60" as="geometry" />
        </mxCell>
        <mxCell id="vJaIqNY0e-Uf2tTBMrfa-242" value="" style="edgeStyle=orthogonalEdgeStyle;rounded=0;orthogonalLoop=1;jettySize=auto;html=1;" parent="WIyWlLk6GJQsqaUBKTNV-1" source="vJaIqNY0e-Uf2tTBMrfa-237" target="vJaIqNY0e-Uf2tTBMrfa-241" edge="1">
          <mxGeometry relative="1" as="geometry" />
        </mxCell>
        <mxCell id="vJaIqNY0e-Uf2tTBMrfa-237" value="&quot;Anda Keluar Program&quot;" style="shape=parallelogram;perimeter=parallelogramPerimeter;whiteSpace=wrap;html=1;fixedSize=1;" parent="WIyWlLk6GJQsqaUBKTNV-1" vertex="1">
          <mxGeometry x="1390" y="780" width="120" height="60" as="geometry" />
        </mxCell>
        <mxCell id="vJaIqNY0e-Uf2tTBMrfa-240" value="" style="endArrow=classic;html=1;rounded=0;" parent="WIyWlLk6GJQsqaUBKTNV-1" edge="1">
          <mxGeometry width="50" height="50" relative="1" as="geometry">
            <mxPoint x="1490" y="840" as="sourcePoint" />
            <mxPoint x="1550" y="840" as="targetPoint" />
          </mxGeometry>
        </mxCell>
        <mxCell id="vJaIqNY0e-Uf2tTBMrfa-241" value="&quot;=======&quot;" style="shape=parallelogram;perimeter=parallelogramPerimeter;whiteSpace=wrap;html=1;fixedSize=1;" parent="WIyWlLk6GJQsqaUBKTNV-1" vertex="1">
          <mxGeometry x="1390" y="940" width="120" height="60" as="geometry" />
        </mxCell>
        <mxCell id="vJaIqNY0e-Uf2tTBMrfa-243" value="" style="endArrow=classic;html=1;rounded=0;" parent="WIyWlLk6GJQsqaUBKTNV-1" edge="1">
          <mxGeometry width="50" height="50" relative="1" as="geometry">
            <mxPoint x="1490" y="1000" as="sourcePoint" />
            <mxPoint x="1550" y="1000" as="targetPoint" />
          </mxGeometry>
        </mxCell>
        <mxCell id="vJaIqNY0e-Uf2tTBMrfa-245" value="" style="edgeStyle=orthogonalEdgeStyle;rounded=0;orthogonalLoop=1;jettySize=auto;html=1;" parent="WIyWlLk6GJQsqaUBKTNV-1" source="9oWaoVra9yV_TYSD30ba-18" target="vJaIqNY0e-Uf2tTBMrfa-244" edge="1">
          <mxGeometry relative="1" as="geometry">
            <mxPoint x="790" y="570" as="sourcePoint" />
            <mxPoint x="1450" y="780" as="targetPoint" />
            <Array as="points" />
          </mxGeometry>
        </mxCell>
        <mxCell id="vJaIqNY0e-Uf2tTBMrfa-244" value="Yes" style="text;html=1;align=center;verticalAlign=middle;whiteSpace=wrap;rounded=0;" parent="WIyWlLk6GJQsqaUBKTNV-1" vertex="1">
          <mxGeometry x="760" y="590" width="60" height="30" as="geometry" />
        </mxCell>
        <mxCell id="vJaIqNY0e-Uf2tTBMrfa-246" value="" style="edgeStyle=orthogonalEdgeStyle;rounded=0;orthogonalLoop=1;jettySize=auto;html=1;" parent="WIyWlLk6GJQsqaUBKTNV-1" source="9oWaoVra9yV_TYSD30ba-18" target="vJaIqNY0e-Uf2tTBMrfa-247" edge="1">
          <mxGeometry relative="1" as="geometry">
            <mxPoint x="830" y="530" as="sourcePoint" />
            <mxPoint x="1400" y="530" as="targetPoint" />
          </mxGeometry>
        </mxCell>
        <mxCell id="vJaIqNY0e-Uf2tTBMrfa-247" value="No" style="text;html=1;align=center;verticalAlign=middle;whiteSpace=wrap;rounded=0;" parent="WIyWlLk6GJQsqaUBKTNV-1" vertex="1">
          <mxGeometry x="1170" y="515" width="60" height="30" as="geometry" />
        </mxCell>
        <mxCell id="Ia85nuK7yf_Ye7YYZjxz-6" value="" style="endArrow=classic;html=1;rounded=0;entryX=0;entryY=0.5;entryDx=0;entryDy=0;" edge="1" parent="WIyWlLk6GJQsqaUBKTNV-1" target="Ia85nuK7yf_Ye7YYZjxz-10">
          <mxGeometry width="50" height="50" relative="1" as="geometry">
            <mxPoint x="-684.5" y="1480" as="sourcePoint" />
            <mxPoint x="-70" y="1840" as="targetPoint" />
            <Array as="points">
              <mxPoint x="-684.5" y="1840" />
            </Array>
          </mxGeometry>
        </mxCell>
        <mxCell id="Ia85nuK7yf_Ye7YYZjxz-7" value="" style="endArrow=classic;html=1;rounded=0;entryX=1;entryY=0.5;entryDx=0;entryDy=0;" edge="1" parent="WIyWlLk6GJQsqaUBKTNV-1" target="Ia85nuK7yf_Ye7YYZjxz-10">
          <mxGeometry width="50" height="50" relative="1" as="geometry">
            <mxPoint x="1450" y="1000" as="sourcePoint" />
            <mxPoint x="1350" y="1840" as="targetPoint" />
            <Array as="points">
              <mxPoint x="1450" y="1840" />
            </Array>
          </mxGeometry>
        </mxCell>
        <mxCell id="Ia85nuK7yf_Ye7YYZjxz-8" value="" style="endArrow=classic;html=1;rounded=0;entryX=1;entryY=0.5;entryDx=0;entryDy=0;" edge="1" parent="WIyWlLk6GJQsqaUBKTNV-1" target="Ia85nuK7yf_Ye7YYZjxz-10">
          <mxGeometry width="50" height="50" relative="1" as="geometry">
            <mxPoint x="1260" y="1620" as="sourcePoint" />
            <mxPoint x="1160" y="1830" as="targetPoint" />
            <Array as="points">
              <mxPoint x="1260" y="1840" />
            </Array>
          </mxGeometry>
        </mxCell>
        <mxCell id="Ia85nuK7yf_Ye7YYZjxz-9" value="" style="endArrow=classic;html=1;rounded=0;" edge="1" parent="WIyWlLk6GJQsqaUBKTNV-1">
          <mxGeometry width="50" height="50" relative="1" as="geometry">
            <mxPoint x="1045" y="1620" as="sourcePoint" />
            <mxPoint x="85" y="1840" as="targetPoint" />
            <Array as="points">
              <mxPoint x="1045" y="1840" />
            </Array>
          </mxGeometry>
        </mxCell>
        <mxCell id="Ia85nuK7yf_Ye7YYZjxz-10" value="End" style="ellipse;whiteSpace=wrap;html=1;" vertex="1" parent="WIyWlLk6GJQsqaUBKTNV-1">
          <mxGeometry x="-35" y="1800" width="120" height="80" as="geometry" />
        </mxCell>
        <mxCell id="Ia85nuK7yf_Ye7YYZjxz-12" value="" style="endArrow=classic;html=1;rounded=0;entryX=0;entryY=0.5;entryDx=0;entryDy=0;" edge="1" parent="WIyWlLk6GJQsqaUBKTNV-1" target="Ia85nuK7yf_Ye7YYZjxz-10">
          <mxGeometry width="50" height="50" relative="1" as="geometry">
            <mxPoint x="-90" y="1620" as="sourcePoint" />
            <mxPoint x="-40" y="1570" as="targetPoint" />
            <Array as="points">
              <mxPoint x="-90" y="1840" />
            </Array>
          </mxGeometry>
        </mxCell>
        <mxCell id="Ia85nuK7yf_Ye7YYZjxz-13" value="" style="endArrow=classic;html=1;rounded=0;entryX=1;entryY=0.5;entryDx=0;entryDy=0;" edge="1" parent="WIyWlLk6GJQsqaUBKTNV-1" target="Ia85nuK7yf_Ye7YYZjxz-10">
          <mxGeometry width="50" height="50" relative="1" as="geometry">
            <mxPoint x="120" y="1620" as="sourcePoint" />
            <mxPoint x="170" y="1570" as="targetPoint" />
            <Array as="points">
              <mxPoint x="120" y="1840" />
            </Array>
          </mxGeometry>
        </mxCell>
        <mxCell id="Ia85nuK7yf_Ye7YYZjxz-15" value="" style="endArrow=classic;html=1;rounded=0;" edge="1" parent="WIyWlLk6GJQsqaUBKTNV-1">
          <mxGeometry width="50" height="50" relative="1" as="geometry">
            <mxPoint x="1654" y="560" as="sourcePoint" />
            <mxPoint x="1714" y="560" as="targetPoint" />
          </mxGeometry>
        </mxCell>
        <mxCell id="Ia85nuK7yf_Ye7YYZjxz-16" value="" style="endArrow=classic;html=1;rounded=0;exitX=0.5;exitY=1;exitDx=0;exitDy=0;entryX=1;entryY=0.5;entryDx=0;entryDy=0;" edge="1" parent="WIyWlLk6GJQsqaUBKTNV-1" source="vJaIqNY0e-Uf2tTBMrfa-234" target="Ia85nuK7yf_Ye7YYZjxz-10">
          <mxGeometry width="50" height="50" relative="1" as="geometry">
            <mxPoint x="1560" y="570" as="sourcePoint" />
            <mxPoint x="1470" y="1840" as="targetPoint" />
            <Array as="points">
              <mxPoint x="1620" y="590" />
              <mxPoint x="1620" y="1840" />
            </Array>
          </mxGeometry>
        </mxCell>
        <mxCell id="Ia85nuK7yf_Ye7YYZjxz-17" value="" style="endArrow=classic;html=1;rounded=0;entryX=1;entryY=0.5;entryDx=0;entryDy=0;" edge="1" parent="WIyWlLk6GJQsqaUBKTNV-1" target="Ia85nuK7yf_Ye7YYZjxz-10">
          <mxGeometry width="50" height="50" relative="1" as="geometry">
            <mxPoint x="700" y="1760" as="sourcePoint" />
            <mxPoint x="620" y="1840" as="targetPoint" />
            <Array as="points">
              <mxPoint x="700" y="1840" />
            </Array>
          </mxGeometry>
        </mxCell>
        <mxCell id="Ia85nuK7yf_Ye7YYZjxz-18" value="" style="endArrow=classic;html=1;rounded=0;entryX=1;entryY=0.5;entryDx=0;entryDy=0;" edge="1" parent="WIyWlLk6GJQsqaUBKTNV-1" target="Ia85nuK7yf_Ye7YYZjxz-10">
          <mxGeometry width="50" height="50" relative="1" as="geometry">
            <mxPoint x="500" y="1620" as="sourcePoint" />
            <mxPoint x="260" y="1840" as="targetPoint" />
            <Array as="points">
              <mxPoint x="500" y="1840" />
            </Array>
          </mxGeometry>
        </mxCell>
      </root>
    </mxGraphModel>
  </diagram>
</mxfile>
